<svg width="648" height="422" viewBox="0 0 648 422" fill="none" xmlns="http://www.w3.org/2000/svg">
<path d="M552.084 34.7593L557.949 25.3102L555.022 23.518C554.608 23.2561 554.275 22.885 554.059 22.4458C553.843 22.0066 553.752 21.5163 553.797 21.0288C553.849 20.4761 553.865 19.9208 553.847 19.366C553.836 18.8777 553.959 18.3957 554.203 17.9726C554.447 17.5494 554.803 17.2014 555.231 16.9664L558.218 15.3634L553.03 5.55591L550.043 7.19878C549.612 7.42573 549.126 7.52909 548.639 7.49746C548.152 7.46584 547.684 7.30046 547.285 7.01956C546.827 6.70094 546.349 6.41219 545.871 6.14336C545.438 5.91323 545.078 5.56656 544.832 5.14251C544.586 4.71846 544.463 4.23395 544.477 3.74376L544.587 0.338532L533.465 0L533.366 3.41519C533.344 3.90444 533.187 4.37812 532.913 4.78398C532.639 5.18984 532.258 5.51211 531.812 5.71521C531.573 5.82474 531.324 5.95418 531.085 6.08362C530.846 6.21306 530.607 6.3425 530.369 6.49185C529.952 6.74304 529.476 6.8758 528.989 6.8758C528.503 6.8758 528.027 6.74304 527.61 6.49185L524.693 4.67971L518.799 14.1686L521.696 15.9707C522.11 16.2319 522.444 16.6027 522.66 17.0422C522.877 17.4816 522.967 17.9724 522.921 18.46C522.871 19.0094 522.851 19.5612 522.861 20.1128C522.875 20.6005 522.755 21.0827 522.512 21.5061C522.27 21.9296 521.915 22.2778 521.487 22.5124L518.5 24.1254L523.757 33.9229L526.744 32.3199C527.174 32.0893 527.66 31.9829 528.147 32.0128C528.634 32.0427 529.104 32.2076 529.502 32.4891C529.958 32.8056 530.43 33.0981 530.916 33.3653C531.348 33.5972 531.706 33.9443 531.953 34.3679C532.199 34.7916 532.322 35.2751 532.31 35.7649L532.201 39.1701L543.312 39.5186L543.422 36.1034C543.444 35.6167 543.599 35.1454 543.871 34.7413C544.144 34.3373 544.522 34.0162 544.965 33.8134C545.214 33.6939 545.463 33.5744 545.702 33.435L546.419 33.0367C546.837 32.7806 547.318 32.645 547.808 32.645C548.298 32.645 548.779 32.7806 549.197 33.0367L552.084 34.7593ZM542.675 27.7397C541.088 28.5874 539.285 28.9455 537.495 28.7689C535.704 28.5922 534.006 27.8887 532.615 26.7473C531.224 25.6058 530.203 24.0777 529.68 22.3559C529.157 20.6342 529.157 18.7961 529.678 17.0741C530.2 15.352 531.22 13.8232 532.61 12.6809C534.001 11.5386 535.698 10.834 537.489 10.6563C539.279 10.4785 541.083 10.8356 542.67 11.6822C544.258 12.5289 545.559 13.8273 546.409 15.4132C546.974 16.4675 547.326 17.6229 547.444 18.8133C547.562 20.0037 547.444 21.2057 547.098 22.3505C546.751 23.4954 546.182 24.5607 545.423 25.4854C544.664 26.4101 543.73 27.1762 542.675 27.7397Z" fill="#EBEBEB"/>
<path d="M77.0962 296.732L73.1831 289.971L71.1221 291.166C70.8184 291.347 70.4692 291.436 70.1162 291.424C69.7631 291.411 69.421 291.298 69.1307 291.096C68.8101 290.885 68.4776 290.692 68.135 290.519C67.8332 290.361 67.5806 290.124 67.4049 289.832C67.2293 289.541 67.1374 289.206 67.1394 288.866V286.486H59.3432V288.866C59.3451 289.206 59.2532 289.541 59.0776 289.832C58.9019 290.124 58.6493 290.361 58.3475 290.519C58.0049 290.692 57.6724 290.885 57.3518 291.096C57.0615 291.298 56.7194 291.411 56.3663 291.424C56.0133 291.436 55.6641 291.347 55.3604 291.166L53.2994 289.971L49.4062 296.722L51.4773 297.917C51.7725 298.09 52.0136 298.342 52.1737 298.644C52.3337 298.947 52.4063 299.288 52.3833 299.629C52.3833 299.818 52.3833 300.018 52.3833 300.207C52.3833 300.396 52.3833 300.585 52.3833 300.774C52.4075 301.116 52.3354 301.457 52.1752 301.76C52.0151 302.063 51.7733 302.315 51.4773 302.487L49.4062 303.692L53.2994 310.442L55.3704 309.247C55.674 309.067 56.0232 308.977 56.3763 308.99C56.7294 309.002 57.0715 309.116 57.3618 309.317C57.6804 309.526 58.0189 309.715 58.3574 309.895C58.6585 310.05 58.9107 310.286 59.0864 310.576C59.2621 310.866 59.3544 311.199 59.3531 311.538V313.927H67.1394V311.538C67.1381 311.199 67.2304 310.866 67.4061 310.576C67.5817 310.286 67.834 310.05 68.135 309.895C68.4736 309.715 68.8121 309.526 69.1307 309.317C69.4157 309.126 69.7485 309.018 70.0916 309.006C70.4346 308.993 70.7743 309.077 71.0723 309.247L73.1433 310.442L77.0364 303.692L74.9654 302.497C74.6728 302.322 74.4343 302.069 74.2762 301.767C74.1181 301.464 74.0465 301.124 74.0693 300.784C74.0693 300.595 74.0693 300.396 74.0693 300.207C74.0693 300.018 74.0693 299.818 74.0693 299.629C74.0463 299.288 74.1189 298.947 74.279 298.644C74.439 298.342 74.6802 298.09 74.9754 297.917L77.0962 296.732ZM69.6485 300.217C69.6485 301.479 69.2739 302.714 68.5722 303.764C67.8704 304.813 66.873 305.631 65.7062 306.114C64.5395 306.597 63.2557 306.723 62.0174 306.476C60.779 306.229 59.6418 305.62 58.7496 304.726C57.8575 303.833 57.2504 302.694 57.0052 301.456C56.7601 300.217 56.8879 298.933 57.3725 297.767C57.8571 296.601 58.6767 295.605 59.7276 294.905C60.7784 294.205 62.0134 293.832 63.2761 293.834C64.1125 293.836 64.9404 294.002 65.7124 294.323C66.4845 294.645 67.1856 295.116 67.7756 295.708C68.3656 296.301 68.833 297.004 69.1509 297.778C69.4689 298.552 69.6312 299.38 69.6286 300.217H69.6485Z" fill="#EBEBEB"/>
<path d="M45.4127 197.467C39.4123 197.467 33.5467 199.246 28.5575 202.58C23.5684 205.913 19.6799 210.651 17.3836 216.195C15.0874 221.739 14.4866 227.839 15.6572 233.724C16.8278 239.609 19.7172 245.015 23.9602 249.258C28.2031 253.501 33.6089 256.39 39.4939 257.561C45.379 258.731 51.4791 258.13 57.0227 255.834C62.5663 253.538 67.3045 249.649 70.6382 244.66C73.9718 239.671 75.7511 233.806 75.7511 227.805C75.7524 223.821 74.9686 219.875 73.4444 216.194C71.9202 212.512 69.6856 209.167 66.8681 206.35C64.0507 203.532 60.7057 201.298 57.0242 199.773C53.3428 198.249 49.3971 197.465 45.4127 197.467ZM45.4127 241.964C42.61 241.964 39.8702 241.132 37.54 239.575C35.2098 238.018 33.3938 235.804 32.3217 233.215C31.2496 230.625 30.9696 227.776 31.5171 225.027C32.0646 222.279 33.415 219.754 35.3975 217.773C37.38 215.792 39.9055 214.443 42.6546 213.898C45.4037 213.352 48.2529 213.634 50.8416 214.708C53.4304 215.782 55.6426 217.599 57.1982 219.931C58.7539 222.262 59.5832 225.002 59.5812 227.805C59.5812 229.665 59.2147 231.507 58.5025 233.226C57.7904 234.944 56.7466 236.505 55.4308 237.82C54.115 239.135 52.5529 240.178 50.834 240.889C49.115 241.6 47.2728 241.965 45.4127 241.964Z" fill="#EBEBEB"/>
<path d="M51.2475 198.72H39.5781L40.2253 190.466H50.6003L51.2475 198.72Z" fill="#EBEBEB"/>
<path d="M29.0332 202.651L20.789 210.895L15.4023 204.603L22.7405 197.264L29.0332 202.651Z" fill="#EBEBEB"/>
<path d="M16.1196 221.13V232.8L7.85547 232.153V221.778L16.1196 221.13Z" fill="#EBEBEB"/>
<path d="M20.0407 243.332L28.2949 251.587L22.0022 256.973L14.6641 249.635L20.0407 243.332Z" fill="#EBEBEB"/>
<path d="M38.5312 256.259H50.1907L49.5535 264.523H39.1784L38.5312 256.259Z" fill="#EBEBEB"/>
<path d="M60.7344 252.327L68.9886 244.083L74.3653 250.376L67.0271 257.714L60.7344 252.327Z" fill="#EBEBEB"/>
<path d="M73.6602 233.846V222.177L81.9144 222.824V233.209L73.6602 233.846Z" fill="#EBEBEB"/>
<path d="M69.7286 211.642L61.4844 203.388L67.7771 198.011L75.1153 205.339L69.7286 211.642Z" fill="#EBEBEB"/>
<path d="M603.68 47.8527C597.678 47.8527 591.811 49.6326 586.82 52.9673C581.829 56.302 577.939 61.0418 575.642 66.5872C573.345 72.1327 572.744 78.2347 573.915 84.1217C575.086 90.0087 577.977 95.4163 582.221 99.6606C586.465 103.905 591.873 106.795 597.76 107.966C603.647 109.137 609.749 108.536 615.294 106.239C620.84 103.942 625.579 100.052 628.914 95.0617C632.249 90.0709 634.029 84.2034 634.029 78.2011C634.03 74.2153 633.246 70.2683 631.721 66.5857C630.197 62.9031 627.961 59.557 625.143 56.7386C622.325 53.9202 618.978 51.6848 615.296 50.1601C611.613 48.6354 607.666 47.8514 603.68 47.8527ZM603.68 92.3597C600.878 92.3577 598.139 91.5248 595.811 89.9663C593.482 88.4078 591.667 86.1937 590.597 83.604C589.526 81.0143 589.247 78.1652 589.796 75.4172C590.345 72.6691 591.696 70.1455 593.679 68.1654C595.662 66.1853 598.187 64.8376 600.936 64.2929C603.685 63.7481 606.533 64.0307 609.122 65.1049C611.71 66.1791 613.921 67.9966 615.477 70.3277C617.032 72.6588 617.861 75.3988 617.859 78.2011C617.859 80.0621 617.492 81.9048 616.779 83.6239C616.067 85.343 615.022 86.9047 613.705 88.2197C612.388 89.5348 610.825 90.5773 609.105 91.2876C607.385 91.998 605.541 92.3623 603.68 92.3597Z" fill="#EBEBEB"/>
<path d="M609.517 49.1161H597.848L598.495 40.8519H608.88L609.517 49.1161Z" fill="#EBEBEB"/>
<path d="M587.314 53.0507L579.06 61.295L573.684 55.0022L581.022 47.6641L587.314 53.0507Z" fill="#EBEBEB"/>
<path d="M574.387 71.5302V83.1995L566.133 82.5524V72.1773L574.387 71.5302Z" fill="#EBEBEB"/>
<path d="M578.32 93.734L586.564 101.988L580.272 107.365L572.934 100.037L578.32 93.734Z" fill="#EBEBEB"/>
<path d="M596.801 106.657H608.47L607.823 114.921H597.448L596.801 106.657Z" fill="#EBEBEB"/>
<path d="M619.004 102.725L627.258 94.4806L632.645 100.773L625.307 108.111L619.004 102.725Z" fill="#EBEBEB"/>
<path d="M631.93 84.2436V72.5742L640.194 73.2214V83.5964L631.93 84.2436Z" fill="#EBEBEB"/>
<path d="M628.008 62.0398L619.754 53.7856L626.047 48.3989L633.385 55.7371L628.008 62.0398Z" fill="#EBEBEB"/>
<path d="M523.787 256.298L522.801 262.312L521.756 268.774L512.138 327.708H496.426L506.034 268.774L507.09 262.312L508.065 256.298H523.787Z" fill="#EBEBEB"/>
<path d="M521.507 256.298C520.681 262.272 519.785 268.246 518.888 274.22L516.12 292.083L513.203 309.885L511.71 318.847L510.156 327.748L511.431 318.787L512.775 309.826L515.543 291.963L518.45 274.121C519.436 268.176 520.442 262.232 521.507 256.298Z" fill="#C7C7C7"/>
<path d="M522.802 262.311L521.757 268.773H506.035L507.091 262.311H522.802Z" fill="#C7C7C7"/>
<path d="M601.383 256.298L602.359 262.312L603.414 268.774L613.022 327.708H628.744L619.136 268.774L618.08 262.312L617.105 256.298H601.383Z" fill="#EBEBEB"/>
<path d="M603.711 256.298C604.537 262.272 605.424 268.246 606.33 274.22L609.098 292.083L612.005 309.885L613.498 318.797L615.062 327.698L613.787 318.737L612.443 309.776L609.675 291.963L606.798 274.111C605.802 268.176 604.806 262.232 603.711 256.298Z" fill="#C7C7C7"/>
<path d="M602.359 262.311H618.081L619.137 268.773H603.415L602.359 262.311Z" fill="#C7C7C7"/>
<path d="M523.212 239.72H510.746L512.299 228.1H521.669L523.212 239.72Z" fill="#C7C7C7"/>
<path d="M528.599 219.798C528.601 222.097 527.921 224.344 526.645 226.256C525.37 228.169 523.556 229.659 521.433 230.54C519.31 231.421 516.973 231.653 514.718 231.206C512.464 230.758 510.392 229.653 508.766 228.028C507.14 226.403 506.033 224.333 505.583 222.079C505.134 219.824 505.364 217.488 506.243 215.364C507.122 213.24 508.611 211.425 510.522 210.147C512.434 208.87 514.68 208.188 516.979 208.188C518.504 208.187 520.015 208.486 521.425 209.069C522.835 209.652 524.116 210.507 525.195 211.585C526.274 212.664 527.13 213.944 527.714 215.353C528.298 216.762 528.599 218.273 528.599 219.798Z" fill="#DBDBDB"/>
<path d="M525.808 219.798C525.81 221.545 525.294 223.254 524.324 224.707C523.355 226.161 521.976 227.295 520.363 227.965C518.749 228.635 516.973 228.811 515.259 228.471C513.546 228.132 511.971 227.291 510.735 226.056C509.499 224.822 508.657 223.248 508.315 221.535C507.973 219.821 508.148 218.045 508.816 216.431C509.484 214.816 510.616 213.436 512.069 212.465C513.521 211.495 515.229 210.976 516.976 210.976C519.317 210.976 521.562 211.905 523.218 213.56C524.874 215.214 525.805 217.457 525.808 219.798Z" fill="white"/>
<path d="M524.367 219.28C524.287 218.226 523.989 217.201 523.492 216.268C522.995 215.336 522.31 214.517 521.48 213.863C520.643 213.211 519.681 212.736 518.653 212.469C517.626 212.202 516.555 212.148 515.506 212.31C514.469 212.471 513.478 212.85 512.598 213.422C511.717 213.993 510.968 214.744 510.398 215.625C509.798 216.56 509.405 217.612 509.243 218.711C509.082 219.81 509.156 220.93 509.462 221.998C509.998 223.848 511.238 225.414 512.917 226.359C514.554 227.287 516.474 227.581 518.314 227.185C520.099 226.81 521.702 225.833 522.854 224.417C523.987 223.021 524.64 221.296 524.716 219.499C524.716 219.409 524.716 219.339 524.646 219.339C524.576 219.339 524.567 219.399 524.567 219.489C524.527 220.215 524.387 220.932 524.148 221.619C523.902 222.298 523.567 222.94 523.153 223.531C522.739 224.12 522.254 224.655 521.709 225.124C521.146 225.588 520.531 225.986 519.877 226.309C518.946 226.747 517.933 226.986 516.905 227.01C515.876 227.034 514.853 226.843 513.903 226.449C512.937 226.042 512.072 225.431 511.365 224.657C510.659 223.884 510.128 222.966 509.811 221.968C509.487 220.942 509.389 219.859 509.523 218.791C509.657 217.724 510.02 216.699 510.587 215.785C511.132 214.913 511.859 214.17 512.719 213.606C513.578 213.043 514.549 212.672 515.566 212.519C517.289 212.205 519.067 212.512 520.586 213.385C522.104 214.258 523.264 215.641 523.86 217.288C524.096 217.951 524.253 218.64 524.328 219.339L524.367 219.28Z" fill="#EBEBEB"/>
<path d="M523.331 219.279C523.251 218.377 522.987 217.501 522.556 216.704C522.124 215.908 521.534 215.209 520.822 214.649C520.108 214.1 519.293 213.699 518.423 213.468C517.553 213.237 516.645 213.182 515.754 213.305C514.86 213.438 514.005 213.758 513.243 214.243C512.481 214.728 511.831 215.369 511.333 216.123C510.807 216.929 510.458 217.837 510.311 218.789C510.163 219.74 510.22 220.711 510.477 221.639C510.696 222.441 511.074 223.191 511.586 223.846C512.099 224.501 512.737 225.047 513.464 225.452C514.892 226.263 516.57 226.515 518.173 226.159C519.719 225.818 521.102 224.961 522.096 223.73C523.079 222.515 523.647 221.019 523.719 219.458C523.719 219.389 523.719 219.329 523.639 219.329C523.56 219.329 523.56 219.379 523.56 219.458C523.477 220.704 523.064 221.905 522.364 222.939C521.664 223.973 520.703 224.802 519.577 225.343C518.768 225.736 517.884 225.952 516.984 225.978C516.085 226.004 515.19 225.838 514.36 225.492C513.522 225.142 512.772 224.612 512.163 223.939C511.553 223.266 511.1 222.467 510.835 221.599C510.56 220.713 510.48 219.778 510.603 218.858C510.725 217.938 511.045 217.056 511.542 216.272C512.014 215.531 512.642 214.9 513.381 214.424C514.12 213.948 514.953 213.638 515.823 213.514C517.291 213.258 518.802 213.521 520.096 214.259C521.39 214.997 522.386 216.163 522.913 217.557C523.118 218.123 523.259 218.711 523.331 219.309C523.333 219.299 523.333 219.289 523.331 219.279Z" fill="#EBEBEB"/>
<path d="M522.296 219.28C522.219 218.531 521.991 217.806 521.626 217.147C521.262 216.488 520.768 215.91 520.175 215.447C518.975 214.529 517.462 214.121 515.964 214.312C515.215 214.412 514.496 214.669 513.854 215.068C513.212 215.466 512.662 215.995 512.24 216.622C511.783 217.297 511.477 218.062 511.341 218.866C511.206 219.67 511.244 220.494 511.453 221.281C511.634 221.969 511.952 222.613 512.389 223.174C512.825 223.735 513.37 224.202 513.992 224.547C515.202 225.226 516.62 225.435 517.975 225.135C519.286 224.835 520.455 224.097 521.29 223.044C522.109 222.009 522.585 220.746 522.655 219.429C522.655 219.37 522.655 219.32 522.585 219.32C522.515 219.32 522.505 219.32 522.495 219.429C522.421 220.486 522.068 221.503 521.471 222.378C520.875 223.253 520.056 223.953 519.1 224.408C518.421 224.748 517.676 224.938 516.917 224.965C516.158 224.993 515.401 224.857 514.699 224.567C513.989 224.272 513.352 223.824 512.836 223.254C512.32 222.684 511.936 222.007 511.712 221.271C511.49 220.523 511.431 219.735 511.541 218.961C511.651 218.188 511.927 217.448 512.349 216.791C512.751 216.18 513.281 215.664 513.901 215.277C514.522 214.89 515.218 214.643 515.944 214.551C516.906 214.434 517.883 214.551 518.791 214.889C519.728 215.223 520.552 215.813 521.171 216.592C521.465 216.988 521.71 217.42 521.898 217.876C522.073 218.346 522.197 218.833 522.266 219.33C522.275 219.325 522.282 219.317 522.288 219.309C522.293 219.3 522.296 219.29 522.296 219.28Z" fill="#EBEBEB"/>
<path d="M521.258 219.28C521.102 218.077 520.475 216.984 519.515 216.243C518.559 215.526 517.368 215.196 516.18 215.317C515.573 215.389 514.989 215.587 514.464 215.899C513.939 216.212 513.486 216.63 513.133 217.129C512.751 217.678 512.49 218.302 512.368 218.959C512.246 219.617 512.266 220.293 512.426 220.942C512.567 221.515 512.824 222.051 513.182 222.519C513.54 222.987 513.991 223.376 514.507 223.661C515.523 224.225 516.714 224.385 517.843 224.109C518.916 223.85 519.87 223.236 520.551 222.366C521.216 221.507 521.601 220.464 521.656 219.379C521.657 219.369 521.657 219.358 521.654 219.348C521.651 219.338 521.646 219.328 521.64 219.32C521.633 219.311 521.625 219.304 521.616 219.299C521.607 219.294 521.597 219.291 521.586 219.29C521.563 219.292 521.542 219.302 521.525 219.318C521.509 219.335 521.499 219.356 521.497 219.379C521.414 220.223 521.117 221.032 520.635 221.729C520.152 222.426 519.499 222.988 518.739 223.362C518.189 223.647 517.584 223.81 516.965 223.839C516.346 223.868 515.729 223.763 515.154 223.531C514.572 223.293 514.052 222.925 513.633 222.456C513.214 221.986 512.907 221.428 512.735 220.823C512.562 220.215 512.523 219.577 512.621 218.953C512.719 218.329 512.952 217.734 513.302 217.209C513.632 216.725 514.063 216.319 514.565 216.018C515.066 215.717 515.628 215.529 516.21 215.466C516.969 215.399 517.733 215.497 518.45 215.755C519.173 216.021 519.812 216.475 520.302 217.069C520.536 217.377 520.733 217.711 520.889 218.065C521.042 218.436 521.152 218.824 521.218 219.22C521.218 219.22 521.268 219.329 521.258 219.28Z" fill="#EBEBEB"/>
<path d="M614.146 239.72H601.68L603.233 228.1H612.602L614.146 239.72Z" fill="#C7C7C7"/>
<path d="M619.532 219.798C619.534 222.097 618.854 224.344 617.579 226.256C616.303 228.168 614.489 229.659 612.366 230.54C610.243 231.421 607.906 231.653 605.652 231.206C603.397 230.758 601.326 229.653 599.7 228.028C598.074 226.403 596.966 224.333 596.517 222.079C596.068 219.824 596.297 217.488 597.177 215.364C598.056 213.24 599.545 211.425 601.456 210.147C603.367 208.87 605.614 208.188 607.913 208.188C610.993 208.188 613.947 209.411 616.125 211.588C618.304 213.765 619.53 216.718 619.532 219.798Z" fill="#DBDBDB"/>
<path d="M616.753 219.798C616.755 221.545 616.239 223.254 615.27 224.707C614.3 226.161 612.922 227.295 611.308 227.965C609.695 228.635 607.919 228.811 606.205 228.471C604.491 228.132 602.916 227.291 601.68 226.056C600.444 224.822 599.602 223.248 599.26 221.535C598.919 219.821 599.093 218.045 599.761 216.431C600.429 214.816 601.561 213.436 603.014 212.465C604.466 211.495 606.174 210.976 607.922 210.976C610.262 210.976 612.507 211.905 614.163 213.56C615.819 215.214 616.751 217.457 616.753 219.798Z" fill="white"/>
<path d="M615.291 219.28C615.215 218.226 614.92 217.2 614.424 216.268C613.929 215.335 613.244 214.516 612.414 213.863C611.576 213.211 610.614 212.736 609.587 212.469C608.56 212.202 607.488 212.148 606.439 212.31C605.402 212.471 604.411 212.85 603.531 213.422C602.651 213.993 601.901 214.744 601.332 215.625C600.732 216.56 600.338 217.612 600.177 218.711C600.015 219.81 600.09 220.93 600.396 221.998C600.931 223.848 602.172 225.414 603.851 226.359C605.487 227.287 607.408 227.581 609.247 227.185C611.033 226.81 612.636 225.833 613.788 224.417C614.921 223.021 615.574 221.296 615.649 219.499C615.649 219.409 615.649 219.339 615.58 219.339C615.51 219.339 615.5 219.399 615.5 219.489C615.461 220.215 615.32 220.932 615.082 221.619C614.831 222.296 614.497 222.938 614.086 223.531C613.672 224.12 613.187 224.655 612.642 225.124C612.08 225.588 611.465 225.986 610.81 226.309C609.873 226.754 608.851 226.997 607.813 227.021C606.775 227.045 605.744 226.85 604.787 226.449C603.821 226.042 602.955 225.431 602.249 224.657C601.543 223.884 601.012 222.966 600.694 221.968C600.371 220.942 600.273 219.859 600.407 218.791C600.541 217.724 600.904 216.699 601.471 215.785C602.015 214.912 602.742 214.169 603.601 213.605C604.461 213.041 605.433 212.67 606.449 212.519C608.176 212.2 609.959 212.504 611.482 213.378C613.004 214.251 614.167 215.637 614.763 217.288C615 217.951 615.157 218.64 615.231 219.339C615.247 219.339 615.262 219.333 615.274 219.322C615.285 219.311 615.291 219.295 615.291 219.28Z" fill="#EBEBEB"/>
<path d="M614.264 219.279C614.185 218.377 613.921 217.501 613.489 216.704C613.058 215.908 612.467 215.209 611.755 214.649C611.042 214.1 610.226 213.699 609.356 213.468C608.486 213.237 607.579 213.182 606.687 213.305C605.794 213.438 604.938 213.758 604.177 214.243C603.415 214.728 602.764 215.369 602.266 216.123C601.74 216.929 601.392 217.837 601.244 218.789C601.097 219.74 601.153 220.711 601.41 221.639C601.63 222.441 602.007 223.191 602.52 223.846C603.033 224.501 603.671 225.047 604.397 225.452C605.825 226.263 607.504 226.515 609.107 226.159C610.652 225.818 612.036 224.961 613.03 223.73C614.014 222.517 614.579 221.019 614.643 219.458C614.643 219.389 614.643 219.329 614.573 219.329C614.503 219.329 614.493 219.379 614.493 219.458C614.41 220.704 613.997 221.905 613.298 222.939C612.598 223.973 611.636 224.802 610.511 225.343C609.701 225.736 608.817 225.952 607.918 225.978C607.019 226.004 606.124 225.838 605.293 225.492C604.456 225.142 603.706 224.612 603.096 223.939C602.487 223.266 602.034 222.467 601.769 221.599C601.494 220.713 601.414 219.779 601.534 218.859C601.655 217.94 601.972 217.057 602.466 216.272C602.94 215.532 603.568 214.904 604.306 214.428C605.045 213.952 605.877 213.64 606.747 213.514C608.216 213.255 609.729 213.518 611.025 214.256C612.321 214.994 613.319 216.161 613.846 217.557C614.052 218.123 614.192 218.711 614.264 219.309C614.267 219.299 614.267 219.289 614.264 219.279Z" fill="#EBEBEB"/>
<path d="M613.23 219.279C613.152 218.53 612.924 217.805 612.56 217.146C612.196 216.487 611.702 215.909 611.109 215.445C609.91 214.525 608.397 214.113 606.897 214.3C606.149 214.401 605.43 214.658 604.788 215.056C604.146 215.454 603.596 215.984 603.173 216.61C602.717 217.286 602.411 218.051 602.275 218.855C602.139 219.659 602.177 220.482 602.387 221.27C602.568 221.958 602.886 222.601 603.322 223.163C603.759 223.724 604.304 224.191 604.926 224.536C606.136 225.215 607.554 225.424 608.908 225.123C610.219 224.824 611.389 224.086 612.224 223.032C613.042 221.998 613.519 220.735 613.588 219.418C613.588 219.358 613.588 219.309 613.518 219.309C613.449 219.309 613.439 219.309 613.429 219.418C613.349 220.473 612.993 221.488 612.397 222.362C611.801 223.235 610.986 223.937 610.034 224.397C609.354 224.737 608.61 224.927 607.85 224.954C607.091 224.982 606.335 224.846 605.633 224.556C604.922 224.262 604.285 223.814 603.768 223.244C603.251 222.674 602.868 221.997 602.646 221.26C602.423 220.511 602.365 219.724 602.475 218.95C602.585 218.177 602.86 217.437 603.283 216.78C603.685 216.169 604.214 215.653 604.835 215.266C605.455 214.879 606.152 214.631 606.877 214.539C607.84 214.423 608.816 214.539 609.725 214.878C610.639 215.224 611.441 215.813 612.045 216.58C612.339 216.977 612.583 217.408 612.772 217.865C612.947 218.335 613.07 218.822 613.14 219.319C613.148 219.324 613.158 219.327 613.167 219.327C613.177 219.328 613.187 219.326 613.195 219.322C613.204 219.318 613.212 219.312 613.218 219.305C613.224 219.297 613.228 219.288 613.23 219.279Z" fill="#EBEBEB"/>
<path d="M612.195 219.28C612.04 218.077 611.413 216.984 610.453 216.243C609.497 215.526 608.306 215.196 607.117 215.317C606.511 215.389 605.926 215.587 605.401 215.899C604.877 216.212 604.423 216.63 604.071 217.129C603.688 217.678 603.427 218.302 603.305 218.959C603.183 219.617 603.203 220.293 603.364 220.942C603.504 221.515 603.762 222.051 604.12 222.519C604.478 222.987 604.929 223.376 605.445 223.661C606.46 224.226 607.652 224.386 608.78 224.109C609.853 223.85 610.808 223.236 611.488 222.366C612.149 221.505 612.535 220.464 612.594 219.379C612.595 219.369 612.594 219.358 612.591 219.348C612.589 219.338 612.584 219.328 612.577 219.32C612.571 219.311 612.563 219.304 612.554 219.299C612.544 219.294 612.534 219.291 612.524 219.29C612.501 219.292 612.479 219.302 612.463 219.318C612.447 219.335 612.436 219.356 612.434 219.379C612.352 220.223 612.055 221.032 611.572 221.729C611.09 222.426 610.437 222.988 609.676 223.362C609.126 223.647 608.521 223.81 607.903 223.839C607.284 223.868 606.666 223.763 606.092 223.531C605.51 223.293 604.989 222.925 604.57 222.456C604.151 221.986 603.844 221.428 603.672 220.823C603.499 220.215 603.461 219.577 603.559 218.953C603.657 218.329 603.889 217.734 604.24 217.209C604.569 216.725 605 216.319 605.502 216.018C606.004 215.717 606.565 215.529 607.147 215.466C607.906 215.399 608.67 215.497 609.387 215.755C610.109 216.019 610.745 216.473 611.229 217.069C611.471 217.374 611.671 217.709 611.827 218.065C611.979 218.436 612.09 218.824 612.155 219.22C612.155 219.22 612.195 219.329 612.195 219.28Z" fill="#EBEBEB"/>
<path d="M640.902 233.795H484.281V263.755H640.902V233.795Z" fill="#DBDBDB"/>
<path d="M516.46 233.795L505.099 263.755H484.867L496.238 233.795H516.46Z" fill="#EBEBEB"/>
<path d="M557.921 233.795L546.56 263.755H526.328L537.689 233.795H557.921Z" fill="#EBEBEB"/>
<path d="M599.382 233.795L588.011 263.755H567.789L579.16 233.795H599.382Z" fill="#EBEBEB"/>
<path d="M640.841 233.795L629.471 263.755H609.238L620.609 233.795H640.841Z" fill="#EBEBEB"/>
<path d="M637.724 291.444H487.445V310.401H637.724V291.444Z" fill="#DBDBDB"/>
<path d="M518.332 291.444L507.429 310.401H488.023L498.926 291.444H518.332Z" fill="#EBEBEB"/>
<path d="M558.108 291.444L547.205 310.401H527.789L538.702 291.444H558.108Z" fill="#EBEBEB"/>
<path d="M597.887 291.444L586.984 310.401H567.578L578.481 291.444H597.887Z" fill="#EBEBEB"/>
<path d="M637.676 291.444L626.763 310.401H607.348L618.26 291.444H637.676Z" fill="#EBEBEB"/>
<path d="M441.135 421.029C541.305 421.029 622.509 415.546 622.509 408.782C622.509 402.018 541.305 396.535 441.135 396.535C340.965 396.535 259.762 402.018 259.762 408.782C259.762 415.546 340.965 421.029 441.135 421.029Z" fill="#EBEBEB"/>
<path d="M7.16016 327.689L86.3767 327.45L165.593 327.36L324.026 327.201L482.459 327.36L561.676 327.45L640.892 327.689L561.676 327.937L482.459 328.027L324.026 328.186L165.593 328.027L86.3767 327.937L7.16016 327.689Z" fill="#263238"/>
<path d="M515.226 74.8074H132.824V330.608H515.226V74.8074Z" fill="#DBDBDB"/>
<path d="M512.447 77.9335H135.602V327.491H512.447V77.9335Z" fill="#263238"/>
<path d="M565.029 349.786H83.0195V367.34H565.029V349.786Z" fill="#C7C7C7"/>
<path d="M83.0195 349.786L132.824 330.609H515.225L565.029 349.786H83.0195Z" fill="#DBDBDB"/>
<path d="M137.273 342.986L169.414 330.609H478.633L510.774 342.986H137.273Z" fill="#263238"/>
<path d="M491.439 96.8032H156.621V308.615H491.439V96.8032Z" fill="white"/>
<path d="M491.439 96.8032H156.621V104.958H491.439V96.8032Z" fill="#455A64"/>
<path d="M163.092 100.875C163.092 101.269 162.975 101.654 162.757 101.981C162.538 102.309 162.227 102.564 161.863 102.715C161.499 102.865 161.099 102.905 160.712 102.828C160.326 102.751 159.971 102.561 159.693 102.283C159.414 102.004 159.224 101.65 159.148 101.263C159.071 100.877 159.11 100.477 159.261 100.113C159.412 99.7489 159.667 99.4378 159.994 99.219C160.322 99.0002 160.707 98.8834 161.101 98.8834C161.629 98.8834 162.135 99.0932 162.509 99.4667C162.882 99.8401 163.092 100.347 163.092 100.875Z" fill="#F59B5F"/>
<path d="M171.346 100.875C171.346 101.269 171.229 101.654 171.01 101.981C170.792 102.309 170.481 102.564 170.117 102.715C169.753 102.865 169.352 102.905 168.966 102.828C168.58 102.751 168.225 102.561 167.947 102.283C167.668 102.004 167.478 101.65 167.402 101.263C167.325 100.877 167.364 100.477 167.515 100.113C167.666 99.7489 167.921 99.4378 168.248 99.219C168.576 99.0002 168.961 98.8834 169.355 98.8834C169.883 98.8834 170.389 99.0932 170.763 99.4667C171.136 99.8401 171.346 100.347 171.346 100.875Z" fill="#EBEBEB"/>
<path d="M179.651 100.875C179.651 101.269 179.534 101.654 179.315 101.981C179.096 102.309 178.785 102.564 178.421 102.715C178.058 102.865 177.657 102.905 177.271 102.828C176.885 102.751 176.53 102.561 176.251 102.283C175.973 102.004 175.783 101.65 175.706 101.263C175.629 100.877 175.669 100.477 175.82 100.113C175.97 99.7489 176.226 99.4378 176.553 99.219C176.88 99.0002 177.265 98.8834 177.659 98.8834C178.187 98.8834 178.694 99.0932 179.067 99.4667C179.441 99.8401 179.651 100.347 179.651 100.875Z" fill="white"/>
<path d="M316.725 243.12H377.73V196.313H316.725V243.12Z" fill="#EBEBEB"/>
<path d="M322.791 206.558C322.558 207.725 322.706 208.936 323.214 210.012C323.722 211.089 324.563 211.973 325.613 212.535C326.662 213.096 327.865 213.305 329.042 213.131C330.219 212.957 331.309 212.408 332.151 211.566C332.993 210.725 333.541 209.635 333.716 208.457C333.89 207.28 333.681 206.078 333.119 205.028C332.558 203.979 331.673 203.138 330.597 202.63C329.521 202.122 328.31 201.973 327.142 202.206C326.069 202.421 325.082 202.949 324.308 203.723C323.534 204.498 323.006 205.484 322.791 206.558Z" fill="white"/>
<path d="M336.848 233.042H377.72L357.279 207.852L336.848 233.042Z" fill="#C7C7C7"/>
<path d="M316.715 233.061H352.968L334.846 216.653L316.715 233.061Z" fill="#DBDBDB"/>
<path d="M377.72 233.04H316.715V243.126H377.72V233.04Z" fill="#DBDBDB"/>
<path d="M218.97 196.321H173.148V200.174H218.97V196.321Z" fill="#DBDBDB"/>
<path d="M305.753 205.262H173.148V209.115H305.753V205.262Z" fill="#DBDBDB"/>
<path d="M305.753 213.744H173.148V217.598H305.753V213.744Z" fill="#DBDBDB"/>
<path d="M305.753 222.226H173.148V226.08H305.753V222.226Z" fill="#DBDBDB"/>
<path d="M305.753 230.713H173.148V234.566H305.753V230.713Z" fill="#DBDBDB"/>
<path d="M305.753 239.185H173.148V243.038H305.753V239.185Z" fill="#DBDBDB"/>
<path d="M329.399 120.638H283.578V130.953H329.399V120.638Z" fill="#DBDBDB"/>
<path d="M377.72 138.065H283.578V141.919H377.72V138.065Z" fill="#DBDBDB"/>
<path d="M377.72 146.547H283.578V150.401H377.72V146.547Z" fill="#DBDBDB"/>
<path d="M377.72 155.03H283.578V158.883H377.72V155.03Z" fill="#DBDBDB"/>
<path d="M377.72 163.514H283.578V167.367H377.72V163.514Z" fill="#DBDBDB"/>
<path d="M377.72 174.794H283.578V178.647H377.72V174.794Z" fill="#DBDBDB"/>
<path d="M377.72 183.276H283.578V187.129H377.72V183.276Z" fill="#DBDBDB"/>
<path d="M474.89 120.638H391.094V131.133H474.89V120.638Z" fill="#F59B5F"/>
<path d="M474.673 131.222H391.324V295.838H474.673V131.222Z" fill="white"/>
<path d="M474.9 296.108H391.094V130.954H474.9V296.108ZM391.552 295.57H474.432V131.491H391.552V295.57Z" fill="#DBDBDB"/>
<path d="M391.544 295.938L391.105 295.739L474.454 131.123L474.882 131.322L391.544 295.938Z" fill="#DBDBDB"/>
<path d="M474.454 295.938L391.105 131.322L391.544 131.123L474.882 295.739L474.454 295.938Z" fill="#DBDBDB"/>
<path d="M273.195 120.817H173.328V186.94H273.195V120.817Z" fill="white"/>
<path d="M173.168 187.131V186.962V120.669H173.337H273.363V187.131H273.244H173.168ZM173.487 120.998V186.793H273.055V121.008L173.487 120.998Z" fill="#DBDBDB"/>
<path d="M173.488 120.998C181.882 126.325 190.236 131.731 198.57 137.148L223.511 153.497L248.354 170.025L260.73 178.349L273.047 186.763L260.471 178.737L247.965 170.623L223.014 154.274L198.181 137.735C189.927 132.199 181.643 126.683 173.488 120.998Z" fill="#DBDBDB"/>
<path d="M273.037 120.998C264.842 126.643 256.598 132.199 248.344 137.735L223.511 154.274L198.57 170.623L186.054 178.737L173.488 186.763L185.805 178.349L198.171 170.025L223.004 153.497L247.955 137.148C256.319 131.731 264.633 126.325 273.037 120.998Z" fill="#DBDBDB"/>
<path d="M173.488 249.478V295.977H377.255V249.478H173.488Z" fill="white"/>
<path d="M377.592 249.351V296.148H173.148V249.351H377.592ZM376.915 295.849V249.61H173.796V295.849H376.915Z" fill="#DBDBDB"/>
<path d="M377.385 295.859L377.136 296.098L173.359 249.6L173.608 249.361L377.385 295.859Z" fill="#DBDBDB"/>
<path d="M377.385 249.6L173.608 296.098L173.359 295.859L377.136 249.361L377.385 249.6Z" fill="#DBDBDB"/>
<path d="M91.4713 80.2844L70.1992 102.842L72.3941 104.912L93.6662 82.3542L91.4713 80.2844Z" fill="#263238"/>
<path d="M93.0863 103.316H71.3008V106.333H93.0863V103.316Z" fill="#455A64"/>
<path d="M93.0863 79.8098H71.3008V82.8267H93.0863V79.8098Z" fill="#455A64"/>
<path d="M72.3984 80.2755L70.2031 82.345L91.4712 104.906L93.6665 102.837L72.3984 80.2755Z" fill="#455A64"/>
<path d="M91.4713 103.791L70.1992 126.348L72.3941 128.418L93.6662 105.861L91.4713 103.791Z" fill="#263238"/>
<path d="M93.0863 126.827H71.3008V129.843H93.0863V126.827Z" fill="#455A64"/>
<path d="M93.0863 103.316H71.3008V106.333H93.0863V103.316Z" fill="#455A64"/>
<path d="M72.3906 103.782L70.1953 105.851L91.4634 128.413L93.6587 126.343L72.3906 103.782Z" fill="#455A64"/>
<path d="M91.4674 127.299L70.1953 149.857L72.3902 151.927L93.6623 129.369L91.4674 127.299Z" fill="#263238"/>
<path d="M93.0863 150.333H71.3008V153.35H93.0863V150.333Z" fill="#455A64"/>
<path d="M93.0863 126.827H71.3008V129.843H93.0863V126.827Z" fill="#455A64"/>
<path d="M72.3984 127.292L70.2031 129.362L91.4712 151.923L93.6665 149.854L72.3984 127.292Z" fill="#455A64"/>
<path d="M91.4752 150.802L70.2031 173.359L72.398 175.429L93.6701 152.871L91.4752 150.802Z" fill="#263238"/>
<path d="M93.0863 173.843H71.3008V176.86H93.0863V173.843Z" fill="#455A64"/>
<path d="M93.0863 150.333H71.3008V153.35H93.0863V150.333Z" fill="#455A64"/>
<path d="M72.4023 150.799L70.207 152.868L91.4751 175.429L93.6704 173.36L72.4023 150.799Z" fill="#455A64"/>
<path d="M91.4713 174.318L70.1992 196.875L72.3941 198.945L93.6662 176.388L91.4713 174.318Z" fill="#263238"/>
<path d="M93.0863 197.35H71.3008V200.367H93.0863V197.35Z" fill="#455A64"/>
<path d="M93.0863 173.843H71.3008V176.86H93.0863V173.843Z" fill="#455A64"/>
<path d="M72.4023 174.299L70.207 176.369L91.4751 198.93L93.6704 196.86L72.4023 174.299Z" fill="#455A64"/>
<path d="M91.4791 197.822L70.207 220.38L72.4019 222.45L93.674 199.892L91.4791 197.822Z" fill="#263238"/>
<path d="M93.0863 220.85H71.3008V223.867H93.0863V220.85Z" fill="#455A64"/>
<path d="M93.0863 197.35H71.3008V200.367H93.0863V197.35Z" fill="#455A64"/>
<path d="M72.3945 197.809L70.1992 199.879L91.4673 222.44L93.6626 220.371L72.3945 197.809Z" fill="#455A64"/>
<path d="M91.4674 221.323L70.1953 243.88L72.3902 245.95L93.6623 223.393L91.4674 221.323Z" fill="#263238"/>
<path d="M93.0863 244.357H71.3008V247.374H93.0863V244.357Z" fill="#455A64"/>
<path d="M93.0863 220.85H71.3008V223.867H93.0863V220.85Z" fill="#455A64"/>
<path d="M72.4023 221.306L70.207 223.376L91.4751 245.937L93.6704 243.867L72.4023 221.306Z" fill="#455A64"/>
<path d="M91.4752 244.82L70.2031 267.377L72.398 269.447L93.6701 246.889L91.4752 244.82Z" fill="#263238"/>
<path d="M93.0863 267.865H71.3008V270.882H93.0863V267.865Z" fill="#455A64"/>
<path d="M93.0863 244.357H71.3008V247.374H93.0863V244.357Z" fill="#455A64"/>
<path d="M72.4062 244.813L70.2109 246.882L91.4791 269.443L93.6743 267.374L72.4062 244.813Z" fill="#455A64"/>
<path d="M91.483 268.318L70.2109 290.876L72.4058 292.946L93.6779 270.388L91.483 268.318Z" fill="#263238"/>
<path d="M93.0863 291.373H71.3008V294.39H93.0863V291.373Z" fill="#455A64"/>
<path d="M93.0863 267.865H71.3008V270.882H93.0863V267.865Z" fill="#455A64"/>
<path d="M72.4023 268.325L70.207 270.394L91.4751 292.956L93.6704 290.886L72.4023 268.325Z" fill="#455A64"/>
<path d="M91.4712 291.842L70.207 314.407L72.4027 316.476L93.6668 293.911L91.4712 291.842Z" fill="#263238"/>
<path d="M93.0863 314.882H71.3008V317.899H93.0863V314.882Z" fill="#455A64"/>
<path d="M93.0863 291.373H71.3008V294.39H93.0863V291.373Z" fill="#455A64"/>
<path d="M72.4062 291.839L70.2109 293.908L91.4791 316.47L93.6743 314.4L72.4062 291.839Z" fill="#455A64"/>
<path d="M91.4673 315.343L70.2031 337.908L72.3988 339.977L93.6629 317.412L91.4673 315.343Z" fill="#263238"/>
<path d="M93.0863 338.386H71.3008V341.403H93.0863V338.386Z" fill="#455A64"/>
<path d="M93.0863 314.882H71.3008V317.899H93.0863V314.882Z" fill="#455A64"/>
<path d="M72.4062 315.33L70.2109 317.399L91.4791 339.961L93.6743 337.891L72.4062 315.33Z" fill="#455A64"/>
<path d="M97.4492 351.758V338.067H66.0255V351.758H97.4492Z" fill="#455A64"/>
<path d="M73.8906 338.926L73.8906 81.0444H66.0148L66.0148 338.926H73.8906Z" fill="#455A64"/>
<path d="M97.4492 338.926L97.4492 81.0444H89.5734L89.5734 338.926H97.4492Z" fill="#455A64"/>
<path d="M304.439 79.2027L280.901 56.0033L82.223 18.9838L21.8449 56.1825L20.2617 53.6037L81.6356 15.7976L282.355 53.2054L306.56 77.042L304.439 79.2027Z" fill="#455A64"/>
<path d="M106.181 59.2594L81.9856 25.6252L58.8261 59.2096L53.8477 55.7745L81.8761 15.1307L111.089 55.7247L106.181 59.2594Z" fill="#263238"/>
<path d="M258.749 58.7022L256.68 60.8975L279.241 82.1656L281.31 79.9703L258.749 58.7022Z" fill="#263238"/>
<path d="M282.716 59.2585H279.699V81.0441H282.716V59.2585Z" fill="#455A64"/>
<path d="M259.208 59.2585H256.191V81.0441H259.208V59.2585Z" fill="#455A64"/>
<path d="M279.237 58.6972L256.676 79.9653L258.745 82.1606L281.307 60.8925L279.237 58.6972Z" fill="#455A64"/>
<path d="M235.234 58.7022L233.164 60.8975L255.725 82.1656L257.795 79.9703L235.234 58.7022Z" fill="#263238"/>
<path d="M259.208 59.2585H256.191V81.0441H259.208V59.2585Z" fill="#455A64"/>
<path d="M235.701 59.2585H232.684V81.0441H235.701V59.2585Z" fill="#455A64"/>
<path d="M255.702 58.6506L233.145 79.9226L235.214 82.1175L257.772 60.8455L255.702 58.6506Z" fill="#455A64"/>
<path d="M211.722 58.7002L209.652 60.8955L232.214 82.1636L234.283 79.9684L211.722 58.7002Z" fill="#263238"/>
<path d="M235.701 59.2585H232.684V81.0441H235.701V59.2585Z" fill="#455A64"/>
<path d="M212.193 59.2585H209.176V81.0441H212.193V59.2585Z" fill="#455A64"/>
<path d="M232.198 58.6486L209.641 79.9207L211.71 82.1156L234.268 60.8435L232.198 58.6486Z" fill="#455A64"/>
<path d="M188.218 58.7002L186.148 60.8955L208.71 82.1636L210.779 79.9684L188.218 58.7002Z" fill="#263238"/>
<path d="M212.193 59.2585H209.176V81.0441H212.193V59.2585Z" fill="#455A64"/>
<path d="M188.681 59.2585H185.664V81.0441H188.681V59.2585Z" fill="#455A64"/>
<path d="M208.694 58.6564L186.137 79.9285L188.207 82.1234L210.764 60.8513L208.694 58.6564Z" fill="#455A64"/>
<path d="M164.714 58.6944L162.645 60.8896L185.206 82.1578L187.275 79.9625L164.714 58.6944Z" fill="#263238"/>
<path d="M188.681 59.2585H185.664V81.0441H188.681V59.2585Z" fill="#455A64"/>
<path d="M165.185 59.2585H162.168V81.0441H165.185V59.2585Z" fill="#455A64"/>
<path d="M185.186 58.6662L162.629 79.9382L164.699 82.1331L187.256 60.8611L185.186 58.6662Z" fill="#455A64"/>
<path d="M141.21 58.6944L139.141 60.8896L161.702 82.1578L163.771 79.9625L141.21 58.6944Z" fill="#263238"/>
<path d="M165.185 59.2585H162.168V81.0441H165.185V59.2585Z" fill="#455A64"/>
<path d="M141.677 59.2585H138.66V81.0441H141.677V59.2585Z" fill="#455A64"/>
<path d="M161.683 58.6642L139.125 79.9363L141.195 82.1312L163.752 60.8591L161.683 58.6642Z" fill="#455A64"/>
<path d="M117.694 58.6944L115.625 60.8896L138.186 82.1578L140.256 79.9625L117.694 58.6944Z" fill="#263238"/>
<path d="M141.677 59.2585H138.66V81.0441H141.677V59.2585Z" fill="#455A64"/>
<path d="M118.169 59.2585H115.152V81.0441H118.169V59.2585Z" fill="#455A64"/>
<path d="M138.186 58.6642L115.629 79.9363L117.699 82.1312L140.256 60.8591L138.186 58.6642Z" fill="#455A64"/>
<path d="M94.1944 58.6924L92.125 60.8877L114.686 82.1558L116.756 79.9605L94.1944 58.6924Z" fill="#263238"/>
<path d="M118.169 59.2585H115.152V81.0441H118.169V59.2585Z" fill="#455A64"/>
<path d="M94.6614 59.2585H91.6445V81.0441H94.6614V59.2585Z" fill="#455A64"/>
<path d="M114.679 58.6642L92.1211 79.9363L94.1909 82.1312L116.748 60.8591L114.679 58.6642Z" fill="#455A64"/>
<path d="M70.6788 58.6924L68.6094 60.8877L91.1707 82.1558L93.2401 79.9605L70.6788 58.6924Z" fill="#263238"/>
<path d="M94.6614 59.2585H91.6445V81.0441H94.6614V59.2585Z" fill="#455A64"/>
<path d="M71.1536 59.2585H68.1367V81.0441H71.1536V59.2585Z" fill="#455A64"/>
<path d="M91.1669 58.6623L68.6094 79.9343L70.6792 82.1292L93.2368 60.8572L91.1669 58.6623Z" fill="#455A64"/>
<path d="M47.1749 58.6924L45.1055 60.8877L67.6667 82.1558L69.7362 79.9605L47.1749 58.6924Z" fill="#263238"/>
<path d="M71.1536 59.2585H68.1367V81.0441H71.1536V59.2585Z" fill="#455A64"/>
<path d="M47.6458 59.2585H44.6289V81.0441H47.6458V59.2585Z" fill="#455A64"/>
<path d="M67.6591 58.6584L45.1016 79.9304L47.1714 82.1253L69.729 60.8533L67.6591 58.6584Z" fill="#455A64"/>
<path d="M24.2184 58.8565L22.1367 61.0588L44.7708 82.4527L46.8524 80.2503L24.2184 58.8565Z" fill="#263238"/>
<path d="M47.6458 59.2585H44.6289V81.0441H47.6458V59.2585Z" fill="#455A64"/>
<path d="M24.138 59.2585H21.1211V81.0441H24.138V59.2585Z" fill="#455A64"/>
<path d="M44.1552 58.668L21.5977 79.9401L23.6675 82.135L46.225 60.8629L44.1552 58.668Z" fill="#455A64"/>
<path d="M20.2332 53.5525H6.5625V84.9762H20.2332V53.5525Z" fill="#263238"/>
<path d="M33.925 53.5525H20.2344V84.9762H33.925V53.5525Z" fill="#455A64"/>
<path d="M51.9962 84.9773H25.75V100.649H51.9962V84.9773Z" fill="#455A64"/>
<path d="M306.563 77.1036H20.2344V84.9795H306.563V77.1036Z" fill="#455A64"/>
<path d="M290.224 61.4283H20.2344V53.5525H282.527L290.224 61.4283Z" fill="#455A64"/>
<path d="M287.865 59.2585H284.848V81.0441H287.865V59.2585Z" fill="#455A64"/>
<path d="M177.582 170.626L196.5 167.6L215.418 164.672L253.294 158.967L253.393 158.957L253.493 158.977L316.52 175.326L348.023 183.58L379.487 191.944L347.894 184.068L316.33 176.073L253.244 159.933L253.443 159.943L215.527 165.409L196.57 168.068L177.582 170.626Z" fill="#263238"/>
<path d="M241.794 88.1929H238.777V132.799H241.794V88.1929Z" fill="#263238"/>
<path d="M267.353 89.1903H264.336V133.797H267.353V89.1903Z" fill="#263238"/>
<path d="M273.197 84.9773H233.359V91.3994H273.197V84.9773Z" fill="#455A64"/>
<path d="M254.785 140.295L254.447 146.996L253.451 145.841C254.529 146.119 255.557 146.562 256.498 147.156C257.469 147.739 258.288 148.545 258.888 149.505C259.465 150.474 259.757 151.587 259.729 152.715C259.701 153.842 259.354 154.939 258.728 155.878C258.144 156.764 257.341 157.486 256.398 157.974C255.455 158.462 254.403 158.7 253.342 158.666C252.338 158.584 251.367 158.272 250.504 157.754C249.64 157.236 248.908 156.526 248.363 155.679C248.955 156.432 249.711 157.039 250.574 157.453C251.438 157.867 252.384 158.078 253.342 158.068C254.252 158.012 255.133 157.725 255.901 157.233C256.669 156.742 257.3 156.063 257.733 155.261C258.136 154.514 258.322 153.67 258.269 152.823C258.217 151.976 257.927 151.162 257.434 150.471C256.305 149.185 254.742 148.359 253.043 148.151L252.127 147.992L252.077 146.996L251.749 140.295H254.785Z" fill="#263238"/>
<path d="M273.197 126.556V137.489L253.273 142.218L233.359 137.489V126.556H273.197Z" fill="#455A64"/>
<path d="M242.499 132.968C242.501 133.428 242.367 133.877 242.113 134.26C241.859 134.643 241.498 134.942 241.074 135.119C240.65 135.296 240.184 135.343 239.733 135.255C239.282 135.167 238.868 134.946 238.542 134.622C238.217 134.298 237.995 133.885 237.905 133.435C237.814 132.984 237.86 132.517 238.035 132.093C238.21 131.668 238.508 131.306 238.889 131.05C239.271 130.795 239.72 130.658 240.179 130.658C240.483 130.657 240.785 130.716 241.066 130.831C241.348 130.947 241.604 131.117 241.819 131.332C242.035 131.546 242.206 131.801 242.322 132.082C242.439 132.363 242.499 132.664 242.499 132.968Z" fill="#263238"/>
<path d="M268.675 132.968C268.675 133.425 268.539 133.872 268.285 134.252C268.032 134.632 267.671 134.928 267.249 135.103C266.827 135.277 266.362 135.323 265.914 135.234C265.466 135.145 265.054 134.925 264.731 134.602C264.408 134.279 264.188 133.867 264.099 133.419C264.01 132.971 264.056 132.507 264.231 132.084C264.405 131.662 264.701 131.302 265.081 131.048C265.461 130.794 265.908 130.658 266.365 130.658C266.977 130.658 267.565 130.902 267.998 131.335C268.431 131.768 268.675 132.356 268.675 132.968Z" fill="#263238"/>
<path d="M171.389 216.168L374.551 238.023L379.508 191.94L176.346 170.084L171.389 216.168Z" fill="#F59B5F"/>
<path d="M282.445 218.079L375.601 228.105L331.712 198.036L282.445 218.079Z" fill="#F59B5F"/>
<path opacity="0.2" d="M282.445 218.079L375.601 228.105L331.712 198.036L282.445 218.079Z" fill="black"/>
<path d="M236.574 213.172L319.186 222.064L279.637 201.304L236.574 213.172Z" fill="#F59B5F"/>
<path opacity="0.1" d="M236.574 213.172L319.186 222.064L279.637 201.304L236.574 213.172Z" fill="black"/>
<path d="M375.588 228.123L172.426 206.267L171.358 216.197L374.519 238.052L375.588 228.123Z" fill="#F59B5F"/>
<path opacity="0.1" d="M375.588 228.123L172.426 206.267L171.358 216.197L374.519 238.052L375.588 228.123Z" fill="black"/>
<path opacity="0.6" d="M201.378 188.072C201.239 189.31 200.737 190.478 199.934 191.431C199.131 192.383 198.065 193.076 196.868 193.422C195.672 193.769 194.4 193.753 193.213 193.377C192.025 193.001 190.976 192.282 190.197 191.31C189.418 190.338 188.945 189.157 188.836 187.917C188.728 186.676 188.99 185.431 189.588 184.339C190.187 183.247 191.096 182.356 192.2 181.78C193.304 181.204 194.554 180.968 195.793 181.102C196.618 181.19 197.418 181.441 198.147 181.839C198.875 182.238 199.517 182.776 200.037 183.424C200.556 184.072 200.942 184.816 201.172 185.614C201.402 186.412 201.472 187.247 201.378 188.072Z" fill="white"/>
<path d="M87.0552 17.3903C87.0552 18.3985 86.7562 19.3841 86.196 20.2225C85.6359 21.0608 84.8397 21.7142 83.9081 22.1001C82.9766 22.4859 81.9516 22.5869 80.9627 22.3902C79.9738 22.1935 79.0655 21.708 78.3525 20.995C77.6396 20.2821 77.154 19.3737 76.9573 18.3848C76.7606 17.3959 76.8616 16.3709 77.2474 15.4394C77.6333 14.5079 78.2867 13.7117 79.125 13.1515C79.9634 12.5913 80.949 12.2924 81.9573 12.2924C83.3093 12.2924 84.606 12.8295 85.562 13.7855C86.5181 14.7415 87.0552 16.0382 87.0552 17.3903Z" fill="#A6A6A6"/>
<path d="M84.3144 17.39C84.3164 17.8634 84.1777 18.3268 83.9158 18.7213C83.654 19.1158 83.2809 19.4236 82.8439 19.6057C82.4068 19.7878 81.9255 19.836 81.461 19.7441C80.9966 19.6522 80.5699 19.4244 80.2351 19.0896C79.9003 18.7548 79.6725 18.3281 79.5806 17.8637C79.4887 17.3992 79.5369 16.9179 79.719 16.4808C79.9011 16.0438 80.2089 15.6707 80.6034 15.4088C80.9979 15.147 81.4613 15.0083 81.9347 15.0103C82.5659 15.0103 83.1711 15.261 83.6174 15.7073C84.0637 16.1535 84.3144 16.7588 84.3144 17.39Z" fill="#455A64"/>
<path d="M103.731 351.76H59.7422V362.155H103.731V351.76Z" fill="#263238"/>
<path d="M113.27 362.155H50.2031V382.547H113.27V362.155Z" fill="#455A64"/>
<path d="M107.314 103.157H60.2383V51.0134H91.0347C93.6372 51.0125 96.1514 51.9571 98.1094 53.6715C100.067 55.3859 101.336 57.7532 101.679 60.333L107.314 103.157Z" fill="#F59B5F"/>
<path d="M94.5006 87.3267H72.4363C72.1961 87.3317 71.9568 87.2946 71.7293 87.2172C71.2176 87.0633 70.769 86.7488 70.4499 86.3203C70.1307 85.8917 69.9579 85.3719 69.957 84.8375V56.9883H85.649C86.1772 56.9822 86.7045 57.0323 87.2222 57.1376C88.4009 57.3391 89.5239 57.787 90.5179 58.4519C91.2078 58.9121 91.8253 59.4725 92.3499 60.1147C93.4268 61.3844 94.1178 62.9356 94.3413 64.5853L96.9898 84.499C97.0351 84.8525 97.0045 85.2117 96.9001 85.5525C96.7957 85.8933 96.6199 86.208 96.3844 86.4755C96.1488 86.743 95.859 86.9573 95.5342 87.1041C95.2094 87.2509 94.857 87.3268 94.5006 87.3267Z" fill="#263238"/>
<g opacity="0.4">
<path d="M92.132 72.7982C92.1333 73.1224 92.0696 73.4437 91.9447 73.7429C91.8199 74.0422 91.6364 74.3134 91.4051 74.5406L78.6305 87.3252H72.4374C72.1972 87.3302 71.9579 87.2931 71.7305 87.2157L87.9103 71.0458C88.2575 70.7027 88.6983 70.4698 89.1774 70.3762C89.6564 70.2826 90.1524 70.3325 90.6033 70.5196C91.0541 70.7068 91.4396 71.0228 91.7116 71.4282C91.9835 71.8335 92.1298 72.3101 92.132 72.7982Z" fill="white"/>
<path d="M92.3499 60.1241L69.957 82.507V79.0221L90.5179 58.4613C91.2078 58.9214 91.8253 59.4819 92.3499 60.1241Z" fill="white"/>
<path d="M87.2231 57.1471L74.5083 69.8619C74.2479 70.1214 73.9165 70.298 73.5559 70.3695C73.1954 70.441 72.8217 70.4041 72.482 70.2635C72.1424 70.123 71.8519 69.885 71.6473 69.5797C71.4426 69.2743 71.3329 68.9152 71.332 68.5476C71.3336 68.3065 71.3828 68.068 71.4768 67.8458C71.5708 67.6237 71.7077 67.4223 71.8797 67.2533L82.1352 56.9878H85.6499C86.1785 56.985 86.7059 57.0384 87.2231 57.1471Z" fill="white"/>
</g>
<path d="M56.9136 320.17L55.9677 326.94L54.9422 334.219L45.5827 400.541H30.2891L39.6485 334.219L40.674 326.94L41.6199 320.17H56.9136Z" fill="#F59B5F"/>
<path opacity="0.1" d="M54.7044 320.17C53.8979 326.891 53.0317 333.601 52.1555 340.302L49.4572 360.415L46.6294 380.488L45.1757 390.535L43.6523 400.551L44.8969 390.485L46.2312 380.408L48.9295 360.306L51.7572 340.223C52.6931 333.532 53.6689 326.811 54.7044 320.17Z" fill="black"/>
<path opacity="0.1" d="M55.9677 326.941L54.9421 334.219H39.6484L40.674 326.941H55.9677Z" fill="black"/>
<path d="M132.418 320.17L133.364 326.94L134.389 334.219L143.739 400.541H159.033L149.683 334.219L148.658 326.94L147.712 320.17H132.418Z" fill="#F59B5F"/>
<path opacity="0.1" d="M134.676 320.17C135.482 326.891 136.349 333.601 137.225 340.302L139.923 360.415L142.751 380.488L144.204 390.535L145.728 400.551L144.483 390.485L143.179 380.418L140.481 360.316L137.653 340.233C136.687 333.532 135.711 326.811 134.676 320.17Z" fill="black"/>
<path opacity="0.1" d="M133.363 326.941H148.657L149.683 334.219H134.389L133.363 326.941Z" fill="black"/>
<path d="M56.3579 306.261H44.2305L45.7439 294.96H54.8544L56.3579 306.261Z" fill="#F59B5F"/>
<path opacity="0.1" d="M56.3579 306.261H44.2305L45.7439 294.96H54.8544L56.3579 306.261Z" fill="black"/>
<path d="M61.5942 286.876C61.5942 289.111 60.9314 291.296 59.6896 293.155C58.4479 295.013 56.6829 296.462 54.6179 297.317C52.5529 298.172 50.2806 298.396 48.0885 297.96C45.8963 297.524 43.8826 296.448 42.3022 294.867C40.7217 293.287 39.6454 291.273 39.2093 289.081C38.7733 286.889 38.9971 284.617 39.8524 282.552C40.7078 280.487 42.1562 278.722 44.0147 277.48C45.8731 276.238 48.0581 275.575 50.2932 275.575C51.7773 275.575 53.2468 275.868 54.6179 276.436C55.989 277.003 57.2348 277.836 58.2842 278.885C59.3336 279.935 60.166 281.18 60.7339 282.552C61.3019 283.923 61.5942 285.392 61.5942 286.876Z" fill="#F59B5F"/>
<path d="M58.8847 286.874C58.8867 288.574 58.3844 290.236 57.4414 291.651C56.4984 293.065 55.1571 294.168 53.5872 294.82C52.0172 295.472 50.2892 295.643 48.6217 295.313C46.9542 294.982 45.4222 294.165 44.2195 292.964C43.0168 291.762 42.1974 290.231 41.8651 288.564C41.5327 286.897 41.7023 285.169 42.3523 283.598C43.0024 282.027 44.1038 280.685 45.5171 279.74C46.9303 278.795 48.5921 278.291 50.292 278.291C52.5692 278.291 54.7533 279.195 56.3644 280.805C57.9756 282.414 58.8821 284.597 58.8847 286.874Z" fill="white"/>
<path d="M57.4722 286.379C57.3945 285.355 57.1058 284.359 56.6243 283.453C56.1428 282.546 55.4789 281.749 54.6743 281.112C53.8617 280.483 52.9304 280.025 51.9363 279.764C50.9422 279.504 49.9058 279.448 48.8894 279.598C47.8788 279.754 46.9126 280.122 46.0545 280.678C45.1964 281.234 44.4659 281.965 43.911 282.824C43.3263 283.732 42.9429 284.754 42.7866 285.823C42.6303 286.891 42.7048 287.98 43.0049 289.017C43.5156 290.823 44.7225 292.353 46.3603 293.269C47.9534 294.177 49.8256 294.464 51.6175 294.076C53.3544 293.71 54.9122 292.757 56.0284 291.377C57.1285 290.015 57.7636 288.337 57.8406 286.588C57.8406 286.508 57.8406 286.439 57.7709 286.439C57.7012 286.439 57.6912 286.498 57.6912 286.588C57.6491 287.293 57.5152 287.989 57.2929 288.659C56.8205 289.982 56.0063 291.157 54.9332 292.064C54.387 292.519 53.7887 292.906 53.1509 293.219C52.2385 293.655 51.2442 293.892 50.2335 293.916C49.2228 293.94 48.2184 293.75 47.2863 293.359C46.3462 292.964 45.5032 292.369 44.8155 291.616C44.1278 290.863 43.612 289.97 43.3036 288.998C42.9955 288.005 42.9036 286.959 43.0342 285.928C43.1647 284.898 43.5146 283.907 44.0603 283.023C44.5912 282.176 45.2981 281.453 46.1331 280.904C46.968 280.354 47.9114 279.99 48.8993 279.837C50.2301 279.624 51.594 279.775 52.8458 280.274C54.0976 280.774 55.1906 281.604 56.0085 282.675C56.4178 283.222 56.7526 283.822 57.0042 284.457C57.2277 285.102 57.378 285.77 57.4522 286.449C57.4627 286.441 57.4704 286.43 57.474 286.417C57.4776 286.405 57.4769 286.391 57.4722 286.379Z" fill="#F59B5F"/>
<path d="M56.4654 286.387C56.3892 285.51 56.1343 284.659 55.7165 283.885C55.2986 283.111 54.7267 282.431 54.036 281.886C53.3358 281.347 52.5343 280.953 51.6791 280.729C50.8239 280.505 49.9324 280.455 49.0576 280.582C48.1895 280.709 47.3582 281.019 46.6186 281.491C45.8789 281.963 45.2476 282.587 44.7662 283.32C44.2511 284.103 43.9099 284.987 43.7656 285.913C43.6214 286.838 43.6773 287.784 43.9298 288.687C44.1459 289.467 44.5139 290.196 45.0129 290.834C45.5118 291.471 46.1318 292.004 46.8372 292.401C48.2327 293.18 49.8646 293.425 51.4273 293.088C52.9334 292.761 54.2805 291.924 55.2408 290.718C56.1913 289.535 56.7421 288.082 56.8139 286.566C56.8139 286.496 56.8139 286.437 56.7442 286.437C56.6745 286.437 56.6646 286.486 56.6646 286.566C56.5788 287.783 56.17 288.955 55.4805 289.961C54.7909 290.968 53.8455 291.772 52.7416 292.291C51.9557 292.674 51.0974 292.885 50.2236 292.911C49.3499 292.937 48.4806 292.776 47.6736 292.441C46.8598 292.096 46.1309 291.578 45.5377 290.922C44.9445 290.267 44.5011 289.491 44.2385 288.647C43.9749 287.785 43.8999 286.877 44.0185 285.983C44.137 285.09 44.4463 284.233 44.9255 283.469C45.3876 282.748 45.9992 282.135 46.7191 281.671C47.4389 281.208 48.25 280.904 49.0974 280.781C50.231 280.609 51.3901 280.741 52.4557 281.164C53.5213 281.588 54.4551 282.287 55.1611 283.191C55.5032 283.661 55.7842 284.173 55.9975 284.714C56.1953 285.265 56.3322 285.836 56.4057 286.417L56.4654 286.387Z" fill="#F59B5F"/>
<path d="M55.4615 286.399C55.3894 285.671 55.1695 284.965 54.8151 284.324C54.4607 283.684 53.9793 283.123 53.4004 282.675C52.2365 281.779 50.7648 281.382 49.3081 281.57C48.5802 281.667 47.881 281.916 47.2564 282.302C46.6318 282.689 46.0959 283.202 45.6839 283.81C45.2389 284.468 44.9403 285.214 44.808 285.997C44.6758 286.78 44.713 287.583 44.9172 288.351C45.0929 289.019 45.4022 289.646 45.8266 290.191C46.251 290.737 46.7817 291.192 47.3865 291.527C48.574 292.199 49.9701 292.401 51.2995 292.094C52.571 291.819 53.7097 291.116 54.5255 290.103C55.3207 289.097 55.7835 287.869 55.8498 286.588C55.8498 286.528 55.8498 286.479 55.7801 286.479C55.7104 286.479 55.7004 286.479 55.7004 286.588C55.6178 287.61 55.2693 288.593 54.6893 289.438C54.1094 290.283 53.3184 290.962 52.3948 291.407C51.7331 291.736 51.0087 291.92 50.2702 291.946C49.5317 291.971 48.7963 291.839 48.1133 291.557C47.4226 291.263 46.8059 290.82 46.3081 290.258C45.8104 289.697 45.444 289.032 45.2358 288.311C45.0195 287.583 44.9635 286.817 45.0718 286.066C45.1801 285.315 45.4501 284.596 45.8631 283.96C46.2553 283.366 46.7701 282.863 47.373 282.485C47.9758 282.108 48.6527 281.863 49.3579 281.769C50.2936 281.659 51.2421 281.771 52.1259 282.098C53.0135 282.432 53.792 283.003 54.3762 283.75C54.6651 284.136 54.9028 284.558 55.0831 285.005C55.257 285.462 55.3805 285.936 55.4515 286.419C55.4515 286.419 55.4714 286.419 55.4615 286.399Z" fill="#F59B5F"/>
<path d="M54.4552 286.409C54.3887 285.823 54.2045 285.256 53.9136 284.743C53.6228 284.23 53.2312 283.781 52.7625 283.422C51.8332 282.722 50.674 282.399 49.5166 282.516C48.9223 282.582 48.3487 282.773 47.8337 283.076C47.3188 283.38 46.8742 283.79 46.5295 284.279C46.1541 284.811 45.8975 285.419 45.7773 286.06C45.657 286.7 45.6759 287.36 45.8325 287.992C45.9672 288.545 46.2133 289.064 46.5557 289.517C46.8982 289.971 47.3297 290.35 47.8239 290.631C48.8081 291.182 49.9647 291.338 51.0599 291.069C52.1099 290.824 53.0424 290.222 53.6984 289.366C54.3395 288.542 54.7146 287.542 54.7738 286.499C54.7738 286.449 54.7738 286.409 54.7041 286.409C54.6821 286.412 54.6618 286.422 54.6471 286.439C54.6323 286.455 54.6243 286.477 54.6244 286.499C54.5487 287.325 54.2616 288.119 53.7908 288.802C53.32 289.486 52.6813 290.037 51.9361 290.402C51.4025 290.682 50.8142 290.842 50.2123 290.871C49.6104 290.901 49.0094 290.798 48.4512 290.571C47.903 290.334 47.4137 289.979 47.0179 289.532C46.6221 289.084 46.3296 288.556 46.1611 287.982C45.9924 287.39 45.9549 286.767 46.0512 286.159C46.1475 285.55 46.3753 284.969 46.7187 284.458C47.0401 283.989 47.4594 283.596 47.9476 283.306C48.4359 283.015 48.9814 282.834 49.5464 282.775C50.2849 282.709 51.0288 282.804 51.727 283.054C52.4302 283.311 53.0499 283.755 53.5192 284.338C53.7559 284.644 53.9533 284.979 54.1067 285.334C54.2455 285.702 54.3521 286.082 54.4253 286.469C54.4253 286.469 54.4651 286.419 54.4552 286.409Z" fill="#F59B5F"/>
<path d="M144.834 306.261H132.707L134.22 294.96H143.331L144.834 306.261Z" fill="#F59B5F"/>
<path opacity="0.1" d="M144.834 306.261H132.707L134.22 294.96H143.331L144.834 306.261Z" fill="black"/>
<path d="M150.071 286.876C150.071 289.111 149.408 291.296 148.166 293.155C146.924 295.013 145.159 296.462 143.094 297.317C141.029 298.172 138.757 298.396 136.565 297.96C134.373 297.524 132.359 296.448 130.779 294.867C129.198 293.287 128.122 291.273 127.686 289.081C127.25 286.889 127.474 284.617 128.329 282.552C129.184 280.487 130.633 278.722 132.491 277.48C134.35 276.238 136.535 275.575 138.77 275.575C140.254 275.575 141.723 275.868 143.094 276.436C144.466 277.003 145.711 277.836 146.761 278.885C147.81 279.935 148.643 281.18 149.21 282.552C149.778 283.923 150.071 285.392 150.071 286.876Z" fill="#F59B5F"/>
<path d="M147.361 286.874C147.363 288.574 146.861 290.236 145.918 291.651C144.975 293.065 143.634 294.168 142.064 294.82C140.494 295.472 138.766 295.643 137.098 295.313C135.431 294.982 133.899 294.165 132.696 292.964C131.493 291.762 130.674 290.231 130.342 288.564C130.009 286.897 130.179 285.169 130.829 283.598C131.479 282.027 132.58 280.685 133.994 279.74C135.407 278.795 137.069 278.291 138.769 278.291C141.046 278.291 143.23 279.195 144.841 280.805C146.452 282.414 147.359 284.597 147.361 286.874Z" fill="white"/>
<path d="M145.949 286.379C145.871 285.355 145.582 284.359 145.101 283.453C144.619 282.546 143.955 281.749 143.151 281.112C142.338 280.483 141.407 280.025 140.413 279.764C139.419 279.504 138.382 279.448 137.366 279.598C136.355 279.754 135.389 280.122 134.531 280.678C133.673 281.234 132.942 281.965 132.388 282.824C131.803 283.732 131.419 284.754 131.263 285.823C131.107 286.891 131.181 287.98 131.481 289.017C131.992 290.823 133.199 292.353 134.837 293.269C136.43 294.177 138.302 294.464 140.094 294.076C141.831 293.71 143.389 292.757 144.505 291.377C145.609 290.018 146.245 288.338 146.317 286.588C146.317 286.508 146.317 286.439 146.247 286.439C146.178 286.439 146.168 286.498 146.168 286.588C146.131 287.293 145.997 287.99 145.77 288.659C145.297 289.982 144.483 291.157 143.41 292.064C142.864 292.519 142.265 292.906 141.627 293.219C140.715 293.655 139.721 293.892 138.71 293.916C137.699 293.94 136.695 293.75 135.763 293.359C134.823 292.964 133.98 292.369 133.292 291.616C132.604 290.863 132.089 289.97 131.78 288.998C131.472 288.005 131.38 286.959 131.511 285.928C131.641 284.898 131.991 283.907 132.537 283.023C133.068 282.176 133.775 281.453 134.61 280.904C135.445 280.354 136.388 279.99 137.376 279.837C138.707 279.624 140.071 279.775 141.322 280.274C142.574 280.774 143.667 281.604 144.485 282.675C144.894 283.222 145.229 283.822 145.481 284.457C145.704 285.102 145.855 285.77 145.929 286.449C145.943 286.428 145.95 286.404 145.949 286.379Z" fill="#F59B5F"/>
<path d="M144.942 286.387C144.866 285.51 144.611 284.659 144.193 283.885C143.775 283.111 143.203 282.431 142.513 281.886C141.812 281.347 141.011 280.953 140.156 280.729C139.3 280.505 138.409 280.455 137.534 280.582C136.666 280.709 135.835 281.019 135.095 281.491C134.355 281.963 133.724 282.587 133.243 283.32C132.728 284.103 132.386 284.987 132.242 285.913C132.098 286.838 132.154 287.784 132.406 288.687C132.622 289.467 132.99 290.196 133.489 290.834C133.988 291.471 134.608 292.004 135.314 292.401C136.709 293.18 138.341 293.425 139.904 293.088C141.41 292.761 142.757 291.924 143.717 290.718C144.668 289.535 145.219 288.082 145.29 286.566C145.29 286.496 145.29 286.437 145.221 286.437C145.151 286.437 145.141 286.486 145.141 286.566C145.055 287.783 144.647 288.955 143.957 289.961C143.267 290.968 142.322 291.772 141.218 292.291C140.432 292.674 139.574 292.885 138.7 292.911C137.826 292.937 136.957 292.776 136.15 292.441C135.335 292.097 134.604 291.579 134.009 290.924C133.414 290.269 132.969 289.492 132.705 288.647C132.442 287.785 132.367 286.877 132.485 285.983C132.604 285.09 132.913 284.233 133.392 283.469C133.854 282.748 134.466 282.135 135.186 281.671C135.905 281.208 136.717 280.904 137.564 280.781C138.698 280.609 139.857 280.741 140.922 281.164C141.988 281.588 142.922 282.287 143.628 283.191C143.97 283.661 144.251 284.173 144.464 284.714C144.662 285.265 144.799 285.836 144.872 286.417C144.872 286.417 144.952 286.407 144.942 286.387Z" fill="#F59B5F"/>
<path d="M143.938 286.399C143.866 285.671 143.646 284.965 143.292 284.324C142.937 283.684 142.456 283.123 141.877 282.675C140.713 281.779 139.241 281.382 137.785 281.57C137.057 281.667 136.358 281.916 135.733 282.302C135.108 282.689 134.572 283.202 134.16 283.81C133.716 284.468 133.417 285.214 133.285 285.997C133.152 286.78 133.19 287.583 133.394 288.351C133.569 289.019 133.879 289.646 134.303 290.191C134.728 290.737 135.258 291.192 135.863 291.527C137.051 292.199 138.447 292.401 139.776 292.094C141.048 291.819 142.186 291.116 143.002 290.103C143.801 289.099 144.265 287.87 144.326 286.588C144.326 286.528 144.326 286.479 144.257 286.479C144.187 286.479 144.177 286.479 144.177 286.588C144.094 287.61 143.746 288.593 143.166 289.438C142.586 290.283 141.795 290.962 140.871 291.407C140.21 291.736 139.485 291.92 138.747 291.946C138.008 291.971 137.273 291.839 136.59 291.557C135.9 291.27 135.282 290.834 134.781 290.279C134.28 289.725 133.908 289.066 133.692 288.351C133.476 287.623 133.42 286.857 133.528 286.106C133.637 285.355 133.907 284.636 134.32 283.999C134.712 283.406 135.227 282.903 135.83 282.525C136.433 282.147 137.109 281.903 137.815 281.809C138.75 281.699 139.699 281.811 140.583 282.137C141.259 282.381 141.876 282.766 142.391 283.268C142.906 283.769 143.308 284.375 143.57 285.045C143.744 285.501 143.867 285.975 143.938 286.459C143.938 286.459 143.948 286.419 143.938 286.399Z" fill="#F59B5F"/>
<path d="M142.933 286.41C142.867 285.823 142.683 285.257 142.392 284.743C142.101 284.23 141.709 283.781 141.241 283.423C140.312 282.722 139.152 282.398 137.995 282.517C137.4 282.582 136.827 282.773 136.312 283.077C135.797 283.381 135.352 283.79 135.008 284.279C134.634 284.813 134.378 285.42 134.258 286.061C134.138 286.701 134.156 287.36 134.311 287.993C134.445 288.545 134.691 289.064 135.034 289.518C135.376 289.971 135.808 290.35 136.302 290.631C137.286 291.182 138.443 291.339 139.538 291.069C140.588 290.824 141.52 290.223 142.177 289.367C142.818 288.542 143.193 287.542 143.252 286.499C143.252 286.449 143.252 286.41 143.182 286.41C143.16 286.412 143.14 286.423 143.125 286.439C143.11 286.456 143.102 286.477 143.103 286.499C143.027 287.326 142.74 288.119 142.269 288.802C141.798 289.486 141.159 290.037 140.414 290.402C139.881 290.682 139.292 290.843 138.69 290.872C138.089 290.901 137.487 290.799 136.929 290.572C136.363 290.338 135.856 289.979 135.448 289.522C135.039 289.065 134.739 288.522 134.57 287.933C134.401 287.34 134.363 286.718 134.46 286.109C134.556 285.5 134.784 284.92 135.127 284.408C135.448 283.94 135.868 283.547 136.356 283.256C136.844 282.966 137.39 282.785 137.955 282.726C138.693 282.66 139.437 282.755 140.135 283.004C140.839 283.261 141.458 283.706 141.928 284.289C142.164 284.595 142.362 284.929 142.515 285.285C142.654 285.653 142.761 286.033 142.834 286.42C142.834 286.42 142.943 286.42 142.933 286.41Z" fill="#F59B5F"/>
<path d="M170.852 300.495H18.4727V329.639H170.852V300.495Z" fill="white"/>
<path d="M171.11 329.892H18.2227V300.25H171.11V329.892ZM18.7703 329.394H170.612V300.748H18.7205L18.7703 329.394Z" fill="#263238"/>
<path d="M49.7953 300.495L38.7333 329.649H19.0586L30.1107 300.495H49.7953Z" fill="#F59B5F"/>
<path d="M90.1295 300.495L79.0774 329.649H59.3828L70.4448 300.495H90.1295Z" fill="#F59B5F"/>
<path d="M130.467 300.495L119.405 329.649H99.7305L110.792 300.495H130.467Z" fill="#F59B5F"/>
<path d="M170.809 300.495L159.747 329.649H140.062L151.115 300.495H170.809Z" fill="#F59B5F"/>
<path d="M167.775 365.266H21.5586V383.716H167.775V365.266Z" fill="white"/>
<path d="M168.024 383.962H21.3398V365.044H168.024V383.962ZM21.8078 383.464H167.526V365.542H21.8078V383.464Z" fill="#263238"/>
<path d="M51.6093 365.266L40.9953 383.716H22.1172L32.7312 365.266H51.6093Z" fill="#F59B5F"/>
<path d="M90.3185 365.266L79.7045 383.716H60.8164L71.4304 365.266H90.3185Z" fill="#F59B5F"/>
<path d="M129.012 365.266L118.408 383.716H99.5195L110.133 365.266H129.012Z" fill="#F59B5F"/>
<path d="M167.725 365.266L157.111 383.716H138.223L148.837 365.266H167.725Z" fill="#F59B5F"/>
<path d="M117.729 320.569C120.77 307.828 112.905 295.035 100.164 291.995C87.4234 288.955 74.6304 296.819 71.5904 309.56C68.5504 322.301 76.4145 335.094 89.1555 338.134C101.896 341.174 114.689 333.31 117.729 320.569Z" fill="white"/>
<path d="M94.6614 339.029C89.9209 339.029 85.2869 337.623 81.3455 334.99C77.4041 332.356 74.3323 328.612 72.5187 324.232C70.705 319.853 70.231 315.033 71.1566 310.384C72.0821 305.735 74.3656 301.464 77.7183 298.113C81.0711 294.762 85.3423 292.48 89.9919 291.556C94.6416 290.633 99.4607 291.109 103.84 292.924C108.219 294.74 111.961 297.813 114.593 301.756C117.226 305.698 118.629 310.333 118.627 315.073C118.622 321.427 116.095 327.519 111.602 332.01C107.108 336.502 101.015 339.027 94.6614 339.029ZM94.6614 291.605C90.0198 291.605 85.4825 292.981 81.6231 295.56C77.7638 298.139 74.7558 301.804 72.9796 306.092C71.2033 310.381 70.7386 315.099 71.6441 319.652C72.5496 324.204 74.7848 328.386 78.0668 331.668C81.3489 334.95 85.5306 337.185 90.083 338.091C94.6354 338.996 99.354 338.531 103.642 336.755C107.931 334.979 111.596 331.971 114.175 328.111C116.753 324.252 118.13 319.715 118.13 315.073C118.124 308.851 115.65 302.884 111.25 298.484C106.85 294.084 100.884 291.61 94.6614 291.605Z" fill="#263238"/>
<path d="M114.227 319.734C116.8 308.934 110.13 298.093 99.3302 295.52C88.5299 292.947 77.6888 299.616 75.1158 310.416C72.5428 321.217 79.2123 332.058 90.0126 334.631C100.813 337.204 111.654 330.534 114.227 319.734Z" fill="#F59B5F"/>
<path d="M107.265 312.737H82.0547V317.407H107.265V312.737Z" fill="white"/>
<path d="M426.461 402.975L431.499 368.306L432.963 368.963L435.293 370.018L445.409 374.598L454.46 378.681L460.434 381.379L469.504 385.481L474.483 387.721C475.343 388.189 476.039 388.908 476.477 389.783C476.916 390.658 477.076 391.646 476.936 392.614C476.796 393.583 476.363 394.485 475.695 395.2C475.026 395.915 474.155 396.408 473.198 396.613L471.097 396.902L467.792 397.35L457.944 398.684L451.453 399.57L441.595 400.914L437.473 401.482L426.461 402.975Z" fill="#F59B5F"/>
<g style="mix-blend-mode:multiply" opacity="0.1">
<path d="M433.21 369.272C432.712 370.575 432.092 371.829 431.358 373.016C428.282 377.815 426.061 387.632 427.734 398.903C427.83 400.122 428.081 401.323 428.481 402.478L430.591 402.338C430.591 402.338 440.419 380.772 472.55 386.766L469.562 385.392L460.502 381.31L454.528 378.611L445.467 374.509L433.21 369.272Z" fill="black"/>
</g>
<path d="M457.934 398.689L460.443 381.384L469.513 385.486L467.781 397.355L457.934 398.689Z" fill="#EBEBEB"/>
<path d="M441.586 400.917L445.409 374.591L454.48 378.693L451.443 399.573L441.586 400.917Z" fill="#EBEBEB"/>
<path d="M337.965 402.121H304.211L304.629 400.628L305.316 398.258L308.303 387.983L310.952 378.773L312.694 372.709L315.343 363.499L316.796 358.451C317.12 357.565 317.708 356.799 318.481 356.258C319.254 355.718 320.174 355.428 321.118 355.428C322.061 355.428 322.981 355.718 323.754 356.258C324.527 356.799 325.115 357.565 325.439 358.451L326.006 360.442L326.893 363.519L329.541 372.729L331.284 378.792L333.932 388.003L335.037 391.856L337.965 402.121Z" fill="#F59B5F"/>
<path d="M339.209 410.874H294.852L301.921 393.36H346.279L339.209 410.874Z" fill="#F59B5F"/>
<path d="M329.55 372.71H312.703L315.352 363.51H326.902L329.55 372.71Z" fill="#EBEBEB"/>
<path d="M333.941 387.981H308.312L310.961 378.771H331.293L333.941 387.981Z" fill="#EBEBEB"/>
<path d="M303.773 399.771C306.506 400.998 309.383 401.871 312.336 402.37C315.258 402.879 318.222 403.106 321.188 403.047C322.671 402.947 324.175 402.938 325.629 402.709C326.365 402.609 327.112 402.559 327.839 402.43C328.566 402.3 329.303 402.151 330.04 402.031C330.408 401.962 330.776 401.902 331.145 401.822L332.23 401.554L334.411 401.026C335.854 400.637 337.278 400.15 338.752 399.771C337.388 400.418 336.014 401.066 334.61 401.623L332.449 402.36L331.374 402.718C331.005 402.828 330.637 402.908 330.269 403.007L328.038 403.535C327.301 403.704 326.535 403.784 325.788 403.913C324.273 404.132 322.747 404.272 321.218 404.331C318.158 404.385 315.103 404.05 312.127 403.336C309.147 402.671 306.315 401.463 303.773 399.771Z" fill="#263238"/>
<g style="mix-blend-mode:multiply" opacity="0.1">
<path d="M304.938 400.349C306.248 400.644 307.528 401.061 308.761 401.594C313.739 403.864 323.427 404.581 333.992 401.454C335.136 401.193 336.244 400.788 337.287 400.249L336.859 398.258C336.859 398.258 314.954 391.886 316.209 360.422L315.322 363.499L312.674 372.709L310.932 378.773L308.283 387.983L304.938 400.349Z" fill="black"/>
</g>
<path d="M417.281 402.919L423.903 357.337L440.849 367.224L434.218 412.796L417.281 402.919Z" fill="#F59B5F"/>
<path d="M434.158 386.082C433.212 394.506 430.175 401.077 427.348 400.758C424.52 400.44 423.016 393.361 423.962 384.937C424.908 376.514 427.945 369.952 430.783 370.271C433.62 370.589 435.104 377.669 434.158 386.082Z" fill="#263238"/>
<path d="M510.108 410.826C512.099 411.443 568.345 410.238 570.456 408.834C571.262 408.307 571.561 400.092 571.651 390.175C571.651 388.034 571.651 385.824 571.651 383.574C571.651 380.905 571.651 378.217 571.601 375.608C571.452 363.859 571.093 353.514 571.093 353.514L534.472 354.191L534.9 376.285L535.049 384.251L535.368 390.842C535.368 390.842 514.031 400.948 511.88 402.731C509.729 404.513 508.126 410.218 510.108 410.826Z" fill="#D3766A"/>
<path d="M510.108 410.826C512.099 411.444 568.345 410.239 570.456 408.835C571.262 408.307 571.561 400.093 571.651 390.176C571.651 388.035 571.651 385.825 571.651 383.575C571.651 380.906 571.651 378.218 571.601 375.609L534.9 376.286L535.049 384.252L535.368 390.843C535.368 390.843 514.031 400.949 511.88 402.732C509.729 404.514 508.126 410.219 510.108 410.826Z" fill="white"/>
<path d="M509.937 410.911C511.221 411.31 535.187 410.911 552.632 410.264C556.614 410.105 560.358 409.926 563.335 409.737C567.438 409.478 570.186 409.199 570.624 408.91C571.619 408.253 571.858 396.215 571.838 383.51L534.998 384.197L535.307 390.829C535.307 390.829 513.86 400.975 511.689 402.777C509.519 404.579 507.955 410.284 509.937 410.911Z" fill="#F59B5F"/>
<path d="M510.695 408.635C520.174 408.197 558.488 407.331 567.847 407.64C567.927 407.64 567.927 407.64 567.847 407.64C558.458 408.277 520.194 408.834 510.705 408.755C510.506 408.785 510.496 408.645 510.695 408.635Z" fill="#263238"/>
<path d="M533.963 388.748C537.687 387.971 542.257 388.449 545.165 391.048C545.284 391.147 545.165 391.307 545.015 391.267C541.424 390.195 537.729 389.508 533.993 389.216C533.938 389.208 533.887 389.182 533.85 389.142C533.812 389.102 533.789 389.049 533.786 388.994C533.782 388.939 533.798 388.884 533.83 388.839C533.863 388.794 533.91 388.762 533.963 388.748Z" fill="#263238"/>
<path d="M531.303 390.431C535.027 389.655 539.597 390.133 542.504 392.731C542.624 392.831 542.504 392.99 542.355 392.95C538.765 391.874 535.07 391.187 531.333 390.899C531.278 390.892 531.227 390.866 531.189 390.826C531.152 390.785 531.129 390.733 531.125 390.678C531.122 390.622 531.138 390.568 531.17 390.523C531.202 390.478 531.249 390.445 531.303 390.431Z" fill="#263238"/>
<path d="M528.647 392.115C532.361 391.339 536.941 391.816 539.848 394.405C539.958 394.515 539.848 394.664 539.699 394.634C536.108 393.559 532.413 392.871 528.677 392.583C528.622 392.576 528.571 392.55 528.533 392.509C528.495 392.469 528.473 392.417 528.469 392.361C528.466 392.306 528.481 392.251 528.514 392.206C528.546 392.162 528.593 392.129 528.647 392.115Z" fill="#263238"/>
<path d="M525.987 393.797C529.7 393.02 534.281 393.488 537.188 396.087C537.298 396.186 537.188 396.345 537.039 396.316C533.448 395.24 529.753 394.553 526.016 394.265C525.962 394.257 525.911 394.231 525.873 394.191C525.835 394.15 525.813 394.098 525.809 394.043C525.806 393.988 525.821 393.933 525.854 393.888C525.886 393.843 525.933 393.811 525.987 393.797Z" fill="#263238"/>
<path d="M528.675 385.562C531.354 387.554 534.809 388.33 537.915 389.406C538.234 389.515 538.483 389.207 538.493 388.928C538.553 388.928 538.602 388.868 538.572 388.788C537.361 385.501 535.3 382.595 532.598 380.365C531.015 379.091 528.257 378.234 526.843 380.285C525.429 382.336 527.142 384.378 528.675 385.562ZM527.68 382.575C526.933 378.493 531.374 380.584 532.509 381.58C533.222 382.228 533.887 382.927 534.5 383.671C535.824 385.194 536.91 386.877 538.075 388.52C536.581 387.892 535.088 387.404 533.534 386.837C531.732 386.12 528.068 384.816 527.66 382.575H527.68Z" fill="#263238"/>
<path d="M550.908 382.814C549.912 380.504 547.095 380.753 545.272 381.659C542.172 383.275 539.552 385.679 537.675 388.629C537.667 388.642 537.662 388.657 537.661 388.673C537.659 388.689 537.661 388.704 537.667 388.719C537.673 388.733 537.682 388.746 537.694 388.757C537.706 388.767 537.72 388.775 537.735 388.778C537.675 389.057 537.855 389.416 538.193 389.376C541.459 388.987 544.994 388.978 548.04 387.603C549.823 386.787 551.814 384.995 550.908 382.814ZM543.022 387.793C541.419 388.022 539.816 388.171 538.223 388.46C539.661 387.056 541.169 385.726 542.743 384.477C543.516 383.883 544.328 383.34 545.173 382.854C546.487 382.137 551.266 381.072 549.663 384.905C548.787 387.006 544.924 387.494 543.072 387.763L543.022 387.793Z" fill="#263238"/>
<path opacity="0.2" d="M538.723 410.716C543.462 410.586 548.251 410.437 552.662 410.268C556.645 410.108 560.389 409.929 563.366 409.74C567.458 409.481 570.216 409.202 570.654 408.904C571.51 408.336 571.819 399.036 571.859 388.203C563.485 393.779 547.057 405.001 538.723 410.716Z" fill="black"/>
<path d="M531.764 390.403H573.583C573.583 390.403 571.293 296.321 571.741 294.131C572.816 288.894 596.633 205.953 596.633 205.953L563.626 206.521L552.355 206.71C552.355 206.71 553.351 220.53 552.933 221.994C547.417 242.116 536.653 276.477 534.453 289.212C530.58 311.326 531.764 390.403 531.764 390.403Z" fill="#263238"/>
<path d="M533.117 383.413C539.629 383.244 562.729 382.557 571.421 383.214C571.481 383.214 571.481 383.323 571.421 383.333C568.434 383.821 539.639 383.682 533.117 383.592C533.093 383.592 533.07 383.583 533.054 383.566C533.037 383.549 533.027 383.526 533.027 383.502C533.027 383.479 533.037 383.456 533.054 383.439C533.07 383.422 533.093 383.413 533.117 383.413Z" fill="#37474F"/>
<path d="M568.433 292.09C569.678 287.002 578.988 255.32 581.835 245.293C584.683 235.267 587.351 225.24 589.801 215.134C590.109 213.85 590.428 212.575 590.796 211.301C590.796 211.191 590.986 211.241 590.966 211.351C590.03 216.438 588.785 221.477 587.59 226.515C586.395 231.553 585.111 236.561 583.777 241.56C581.075 251.609 578.131 261.586 574.945 271.49C573.352 276.418 570.723 286.554 569.319 291.543C567.916 296.531 570.206 378.466 570.066 379.8C570.066 379.879 570.035 379.955 569.979 380.011C569.923 380.067 569.847 380.099 569.768 380.099C569.688 380.099 569.612 380.067 569.556 380.011C569.5 379.955 569.469 379.879 569.469 379.8C569.27 370.162 567.199 297.119 568.433 292.09Z" fill="#37474F"/>
<path d="M563.543 206.551C563.543 206.551 571.618 294.59 571.708 294.171C572.703 289.113 595.096 211.112 596.5 206.233L596.56 206.004L563.543 206.551Z" fill="#37474F"/>
<path d="M553.447 415.645C555.438 416.263 611.684 415.058 613.805 413.654C614.602 413.126 614.91 404.922 614.99 394.995C614.99 392.854 614.99 390.644 614.99 388.393C614.99 385.735 614.99 383.037 614.93 380.428C614.781 368.679 614.432 358.334 614.432 358.334L577.801 359.011L578.229 381.105L578.389 389.07L578.697 395.672C578.697 395.672 557.37 405.768 555.219 407.55C553.069 409.333 551.475 415.038 553.447 415.645Z" fill="#D3766A"/>
<path d="M553.447 415.644C555.438 416.261 611.684 415.057 613.805 413.653C614.602 413.125 614.91 404.921 614.99 394.994C614.99 392.853 614.99 390.642 614.99 388.392C614.99 385.734 614.99 383.035 614.93 380.427L578.229 381.104L578.389 389.069L578.697 395.671C578.697 395.671 557.37 405.767 555.219 407.549C553.069 409.331 551.475 415.037 553.447 415.644Z" fill="white"/>
<path d="M553.28 415.733C554.574 416.131 578.54 415.733 595.975 415.086C600.017 414.926 603.701 414.747 606.678 414.568C610.78 414.299 613.528 414.02 613.976 413.731C614.972 413.074 615.201 401.036 615.191 388.332L578.351 389.019L578.67 395.65C578.67 395.65 557.223 405.806 555.052 407.598C552.881 409.39 551.298 415.105 553.28 415.733Z" fill="#F59B5F"/>
<path d="M554.025 413.442C563.504 413.004 601.818 412.147 611.167 412.446C611.247 412.446 611.247 412.496 611.167 412.506C601.788 413.143 563.514 413.691 554.025 413.611C553.846 413.611 553.846 413.442 554.025 413.442Z" fill="#263238"/>
<path d="M577.315 393.53C581.029 392.754 585.609 393.231 588.517 395.83C588.626 395.93 588.517 396.089 588.357 396.059C584.768 394.979 581.073 394.291 577.335 394.008C577.272 394.011 577.21 393.988 577.163 393.945C577.117 393.902 577.089 393.842 577.086 393.779C577.084 393.716 577.106 393.654 577.149 393.607C577.192 393.561 577.252 393.533 577.315 393.53Z" fill="#263238"/>
<path d="M574.655 395.249C578.369 394.472 582.949 394.95 585.856 397.549C585.966 397.648 585.856 397.808 585.697 397.768C582.107 396.695 578.411 396.01 574.675 395.727C574.612 395.729 574.55 395.707 574.503 395.664C574.456 395.621 574.429 395.561 574.426 395.498C574.423 395.434 574.446 395.372 574.489 395.326C574.532 395.279 574.592 395.251 574.655 395.249Z" fill="#263238"/>
<path d="M571.998 396.936C575.712 396.16 580.292 396.637 583.199 399.236C583.309 399.336 583.199 399.495 583.04 399.455C579.449 398.384 575.754 397.696 572.018 397.404C571.963 397.396 571.914 397.368 571.877 397.327C571.84 397.286 571.819 397.233 571.817 397.178C571.814 397.123 571.831 397.069 571.864 397.025C571.897 396.981 571.944 396.949 571.998 396.936Z" fill="#263238"/>
<path d="M569.338 398.62C573.052 397.844 577.632 398.322 580.539 400.91C580.649 401.02 580.539 401.179 580.38 401.139C576.79 400.063 573.095 399.376 569.358 399.088C569.303 399.08 569.253 399.052 569.217 399.011C569.18 398.97 569.159 398.917 569.156 398.862C569.154 398.807 569.171 398.753 569.204 398.709C569.237 398.665 569.284 398.634 569.338 398.62Z" fill="#263238"/>
<path d="M572.02 390.376C574.708 392.368 578.163 393.134 581.27 394.21C581.588 394.319 581.837 394.011 581.837 393.732C581.854 393.731 581.87 393.727 581.884 393.719C581.898 393.711 581.91 393.7 581.919 393.686C581.928 393.672 581.933 393.656 581.935 393.64C581.936 393.624 581.933 393.607 581.927 393.592C580.711 390.308 578.65 387.403 575.953 385.169C574.37 383.894 571.621 383.048 570.198 385.099C568.774 387.15 570.457 389.211 572.02 390.376ZM571.024 387.389C570.277 383.307 574.718 385.398 575.843 386.394C576.551 387.047 577.216 387.745 577.835 388.484C579.105 390.038 580.295 391.657 581.399 393.333C579.906 392.706 578.412 392.218 576.859 391.661C575.086 390.944 571.422 389.639 571.014 387.389H571.024Z" fill="#263238"/>
<path d="M594.261 387.633C593.265 385.333 590.437 385.572 588.615 386.478C585.519 388.095 582.902 390.499 581.028 393.447C581.016 393.457 581.006 393.469 580.999 393.483C580.992 393.496 580.988 393.512 580.988 393.527C580.988 393.543 580.992 393.558 580.999 393.572C581.006 393.585 581.016 393.597 581.028 393.607C581.028 393.886 581.148 394.234 581.486 394.194C584.752 393.806 588.287 393.796 591.333 392.422C593.165 391.605 595.157 389.823 594.261 387.633ZM586.365 392.611C584.762 392.84 583.169 392.989 581.576 393.278C583.014 391.875 584.523 390.545 586.096 389.295C586.865 388.703 587.673 388.164 588.516 387.682C589.84 386.956 594.619 385.9 593.016 389.724C592.13 391.824 588.277 392.312 586.365 392.581V392.611Z" fill="#263238"/>
<path d="M576.259 394.653L616.813 393.907C616.813 393.907 605.423 247.641 606.856 239.885C609.176 227.2 607.205 212.722 601.101 205.852L561.583 206.579C561.583 206.579 560.995 217.681 565.187 224.262C565.187 224.262 568.941 226.533 570.753 227.538L576.259 394.653Z" fill="#263238"/>
<path d="M577.376 387.453C583.529 387.184 581.757 387.174 587.91 386.965C590.897 386.865 610.701 386.218 613.529 386.626C613.589 386.626 613.589 386.736 613.529 386.746C610.731 387.283 590.937 387.582 587.93 387.622C581.767 387.711 583.539 387.622 577.386 387.622C577.368 387.617 577.352 387.606 577.34 387.592C577.328 387.577 577.322 387.559 577.32 387.541C577.319 387.522 577.324 387.504 577.334 387.488C577.344 387.472 577.359 387.46 577.376 387.453Z" fill="#37474F"/>
<path d="M562.687 222.5C566.605 224.301 570.362 226.433 573.918 228.872C573.949 228.889 573.971 228.918 573.98 228.951C573.99 228.985 573.985 229.021 573.968 229.051C573.951 229.082 573.922 229.104 573.889 229.113C573.855 229.123 573.819 229.118 573.789 229.101C569.995 227.11 566.112 225.118 562.428 222.938C562.383 222.898 562.353 222.844 562.343 222.784C562.334 222.724 562.345 222.663 562.376 222.611C562.407 222.559 562.454 222.52 562.511 222.499C562.568 222.479 562.63 222.479 562.687 222.5Z" fill="#37474F"/>
<path d="M567.707 221.834C567.957 222.596 568.153 223.374 568.295 224.163C568.463 224.776 568.514 225.414 568.444 226.045C568.444 226.165 568.255 226.155 568.195 226.045C567.88 225.457 567.661 224.821 567.548 224.163C567.349 223.447 567.13 222.73 566.951 222.003C566.934 221.905 566.956 221.804 567.012 221.722C567.067 221.64 567.152 221.582 567.249 221.56C567.346 221.539 567.447 221.555 567.532 221.606C567.618 221.657 567.68 221.738 567.707 221.834Z" fill="#37474F"/>
<path d="M567.964 218.021C567.845 217.364 567.726 216.707 567.596 216.029C567.467 215.352 567.277 214.665 567.198 213.978C567.198 213.879 567.009 213.909 567.029 213.978C567.148 214.636 567.168 215.323 567.238 215.97C567.307 216.617 567.377 217.304 567.457 217.961C567.606 219.206 567.835 220.45 568.104 221.675C567.45 221.579 566.826 221.333 566.282 220.958C565.761 220.451 565.412 219.793 565.286 219.076C565.077 218.32 564.908 217.563 564.689 216.816C564.402 215.998 564.192 215.154 564.061 214.297C564.061 214.187 563.872 214.227 563.892 214.297C564.082 216.095 564.452 217.87 564.997 219.594C565.236 220.281 565.396 220.968 565.993 221.336C566.682 221.695 567.438 221.905 568.213 221.954C568.303 222.004 568.432 221.954 568.422 221.844C568.363 220.669 568.223 219.285 567.964 218.021Z" fill="#37474F"/>
<path d="M600.415 239.497C600.644 236.59 601.062 233.703 601.331 230.795C601.817 224.967 601.353 219.1 599.957 213.421C599.957 213.311 600.096 213.271 600.116 213.371C601.331 218.361 601.946 223.479 601.948 228.615C601.799 233.742 600.953 238.81 600.953 243.948C600.953 249.086 601.47 254.333 601.948 259.511C602.426 264.688 602.815 269.935 603.253 275.143C604.985 296.052 606.618 317.031 608.281 337.98C608.749 343.825 609.187 349.68 609.635 355.524C610.083 361.369 610.78 376.155 611.109 382.119C611.109 382.637 610.372 382.607 610.312 382.119C609.227 371.625 608.321 352.338 607.494 341.814C606.668 331.289 605.832 320.974 604.995 310.549C604.159 300.125 603.352 289.71 602.536 279.295C602.128 274.087 601.739 268.87 601.341 263.663C600.943 258.455 600.465 253.278 600.345 248.08C600.209 245.22 600.232 242.355 600.415 239.497Z" fill="#37474F"/>
<path d="M585.938 213.309C585.943 213.294 585.953 213.281 585.967 213.272C585.98 213.262 585.996 213.257 586.012 213.257C586.029 213.257 586.044 213.262 586.058 213.272C586.071 213.281 586.081 213.294 586.087 213.309C586.339 213.989 586.481 214.705 586.505 215.43C586.636 216.204 586.83 216.967 587.083 217.71C587.547 219.225 588.39 220.596 589.532 221.693C592.061 223.973 595.407 224.77 598.633 225.496C598.752 225.496 598.712 225.686 598.633 225.696C596.732 225.81 594.827 225.55 593.027 224.929C591.419 224.47 589.929 223.673 588.656 222.589C587.442 221.471 586.601 220.008 586.246 218.397C586.065 217.559 585.959 216.706 585.928 215.848C585.928 215.44 585.928 215.022 585.928 214.614C585.839 214.183 585.842 213.738 585.938 213.309Z" fill="#37474F"/>
<path d="M570.417 152.623C553.899 164.88 527.015 165.985 524.018 164.571C517.676 161.654 508.456 134.262 506.225 124.276C505.588 121.388 526.487 122.105 528.578 124.475C530.49 126.635 535.09 145.563 537.012 145.842C546.621 146.146 556.239 145.88 565.817 145.046C579.677 143.612 575.306 148.999 570.417 152.623Z" fill="#D3766A"/>
<path d="M550.043 144.429L552.522 163.775C552.522 163.775 567.228 158.02 573.631 152.115C580.033 146.211 576.379 144.04 569.987 143.712C563.594 143.383 550.043 144.429 550.043 144.429Z" fill="#EBEBEB"/>
<path d="M553.219 145.037C553.219 144.908 553.288 144.858 553.308 144.987C554.339 150.349 555.038 155.769 555.399 161.217C555.399 161.217 555.34 161.217 555.33 161.217C554.653 158.608 553.438 146.431 553.219 145.037Z" fill="#263238"/>
<path d="M609.028 218.607C608.889 218.767 550.382 220.011 549.845 219.424C549.078 218.587 558.517 159.912 567.767 147.107C570.077 143.911 578.381 141.711 581.836 144.947C591.872 154.316 593.983 162.222 596.612 168.664C599.165 175.632 601.309 182.743 603.034 189.962C606.579 203.742 609.496 218.05 609.028 218.607Z" fill="#EBEBEB"/>
<path d="M582.9 145.087C582.9 145.087 574.287 164.741 572.873 169.76C570.931 176.63 568.094 221.914 568.094 221.914L609.912 219.464C609.912 219.464 601.947 174.19 592.836 158.12C585.687 145.475 582.9 145.087 582.9 145.087Z" fill="#F59B5F"/>
<path d="M569.289 146.033C569.289 146.033 564.43 163.956 563.474 166.664C562.518 169.372 554.025 221.944 554.025 221.944L548.867 220.023C548.867 220.023 554.672 183.62 559.82 165.081C564.967 146.541 569.289 146.033 569.289 146.033Z" fill="#F59B5F"/>
<path d="M569.281 204.199L606.739 204.119C606.42 202.716 606.092 201.242 605.743 199.719L569.63 199.788C569.49 201.282 569.391 202.755 569.281 204.199Z" fill="#EBEBEB"/>
<path d="M551.578 204.228H556.935C557.164 202.795 557.413 201.321 557.662 199.827H552.375C552.096 201.361 551.827 202.814 551.578 204.228Z" fill="#EBEBEB"/>
<path d="M568.723 211.927L608.391 211.847C608.112 210.513 607.803 209.039 607.465 207.456L569.041 207.536C568.962 209.089 568.822 210.563 568.723 211.927Z" fill="#EBEBEB"/>
<path d="M550.223 211.966H555.669C555.888 210.582 556.127 209.108 556.376 207.565H550.979C550.711 209.148 550.452 210.622 550.223 211.966Z" fill="#EBEBEB"/>
<path d="M589.314 157.82C591.544 174.229 588.408 197.06 584.674 199.719C574.02 207.296 555.689 211.328 547.893 212.234C543.353 212.762 541.471 190.329 545.484 189.642C551.816 188.587 566.97 185.371 569.121 184.405C571.272 183.439 575.434 168.474 579.357 157.611C583.618 145.813 588.238 149.875 589.314 157.82Z" fill="#D3766A"/>
<path d="M550.5 190.41C547.028 188.074 543.915 185.243 541.26 182.007C538.273 178.024 534.201 171.811 532 173.354C527.5 176.531 537.586 192.073 537.586 192.073C537.586 192.073 543.132 198.217 547.881 195.459C548.74 194.939 549.438 194.193 549.9 193.303C550.362 192.412 550.57 191.411 550.5 190.41Z" fill="#D3766A"/>
<path d="M519.338 190.967C519.139 191.65 519.153 192.378 519.379 193.052C519.605 193.727 520.032 194.316 520.603 194.741C519.672 195.513 519.041 196.588 518.821 197.778C518.522 199.888 521.708 201.272 521.708 201.272C520.907 202.272 520.428 203.49 520.334 204.767C520.254 206.818 523.261 208.67 523.261 208.67C523.037 209.998 523.299 211.363 523.998 212.514C525.989 215.501 531.466 215.361 534.951 215.312C538.435 215.262 548.283 211.837 550.224 211.329L550.045 188.976C550.045 188.976 534.333 184.774 530.241 185.421C526.816 185.969 520.175 188.418 519.338 190.967Z" fill="#D3766A"/>
<path d="M520.751 194.393C524.276 192.929 528.039 192.601 531.783 192.043C531.863 192.043 531.883 192.163 531.783 192.173C528.059 192.68 524.475 193.915 520.831 194.572C520.808 194.578 520.784 194.575 520.763 194.565C520.742 194.555 520.725 194.537 520.716 194.516C520.706 194.495 520.704 194.47 520.711 194.448C520.717 194.425 520.732 194.406 520.751 194.393Z" fill="#263238"/>
<path d="M521.774 200.973C522.606 200.725 523.466 200.584 524.333 200.555C525.259 200.466 526.175 200.386 527.091 200.336C528.933 200.217 530.785 200.137 532.627 200.117C532.707 200.117 532.727 200.247 532.627 200.247C530.785 200.366 528.953 200.515 527.121 200.714C526.215 200.814 525.299 200.914 524.383 201.033C523.526 201.189 522.655 201.255 521.784 201.232C521.758 201.223 521.735 201.206 521.719 201.183C521.702 201.161 521.693 201.134 521.692 201.106C521.69 201.078 521.698 201.051 521.713 201.027C521.727 201.003 521.749 200.985 521.774 200.973Z" fill="#263238"/>
<path d="M523.338 208.667C524.094 208.446 524.882 208.359 525.668 208.408L528.187 208.279C529.87 208.189 531.552 208.099 533.225 207.95C533.305 207.95 533.325 208.079 533.225 208.079C531.522 208.239 529.82 208.428 528.117 208.567L525.608 208.766C524.851 208.901 524.075 208.901 523.318 208.766C523.318 208.766 523.308 208.677 523.338 208.667Z" fill="#263238"/>
<path d="M573.184 173.303L592.102 178.281C592.102 178.281 592.271 162.49 589.194 154.385C586.118 146.28 582.742 148.819 580.044 154.624C577.346 160.429 573.184 173.303 573.184 173.303Z" fill="#EBEBEB"/>
<path d="M574.937 170.594C574.807 170.594 574.787 170.475 574.937 170.495C580.294 171.55 585.581 172.933 590.768 174.637C590.768 174.637 590.768 174.716 590.768 174.706C588.05 174.358 576.301 170.923 574.937 170.594Z" fill="#263238"/>
<path d="M611.558 113.981C615.791 114.13 619.897 115.458 623.415 117.815C626.934 120.172 629.724 123.465 631.472 127.323L612.853 126.685L608.87 136.692L612.106 146.948L630.735 147.615C628.801 151.179 625.949 154.161 622.476 156.254C619.002 158.347 615.033 159.473 610.978 159.517C606.923 159.561 602.93 158.522 599.412 156.505C595.893 154.489 592.978 151.569 590.966 148.048C588.955 144.527 587.921 140.532 587.97 136.477C588.02 132.422 589.153 128.454 591.25 124.984C593.348 121.513 596.334 118.666 599.901 116.737C603.468 114.808 607.486 113.866 611.538 114.01L611.558 113.981Z" fill="#455A64"/>
<path d="M479.211 154.783C474.978 154.634 470.871 153.306 467.353 150.948C463.835 148.591 461.045 145.298 459.297 141.441L477.916 142.108L481.899 132.151L478.663 121.885L460.034 121.218C461.968 117.654 464.82 114.671 468.294 112.579C471.768 110.486 475.738 109.36 479.793 109.316C483.849 109.272 487.842 110.313 491.36 112.33C494.878 114.348 497.794 117.268 499.805 120.79C501.816 124.312 502.849 128.307 502.798 132.363C502.747 136.418 501.613 140.386 499.514 143.856C497.415 147.326 494.427 150.172 490.86 152.1C487.292 154.029 483.273 154.968 479.22 154.823L479.211 154.783Z" fill="#455A64"/>
<path d="M492.991 122.351L492.266 142.61L602.885 146.569L603.61 126.31L492.991 122.351Z" fill="#455A64"/>
<path d="M525.402 129.494L525.102 137.843L570.654 139.481L570.955 131.133L525.402 129.494Z" fill="#37474F"/>
<path d="M571.47 153.072C573.889 153.55 579.644 149.737 582.193 146.182C582.363 145.943 582.303 143.135 582.382 139.73C582.442 137.669 582.552 135.369 582.811 133.278L569.309 134.861C569.734 137.568 569.831 140.316 569.598 143.046C569.555 143.333 569.488 143.616 569.399 143.892C569.399 143.892 569.399 143.982 569.399 144.031C568.901 145.605 567.676 152.335 571.47 153.072Z" fill="#D3766A"/>
<path d="M569.4 143.89C569.407 143.936 569.407 143.983 569.4 144.029C569.841 144.144 570.29 144.224 570.744 144.268C578.361 145.025 581.398 135.904 582.085 133.375L569.34 134.859C569.77 137.565 569.871 140.313 569.639 143.043C569.578 143.33 569.498 143.613 569.4 143.89Z" fill="#263238"/>
<path d="M585.209 115.584C586.633 120.273 584.154 133.795 580.818 136.812C575.989 141.183 568.083 141.601 564.37 135.816C560.765 130.18 564.31 112.607 568.034 109.869C573.52 105.776 583.098 108.664 585.209 115.584Z" fill="#D3766A"/>
<path d="M573.942 123.917C573.942 123.917 574.001 123.977 573.942 124.007C573.703 124.903 573.593 125.998 574.35 126.456C573.404 126.147 573.563 124.694 573.942 123.917Z" fill="#263238"/>
<path d="M574.934 123.151C576.407 123.37 575.87 126.307 574.505 126.138C573.141 125.969 573.699 122.972 574.934 123.151Z" fill="#263238"/>
<path d="M568.234 122.803C568.234 122.803 568.155 122.803 568.155 122.863C568.015 123.779 567.697 124.854 566.82 124.964C567.856 125.053 568.254 123.699 568.234 122.803Z" fill="#263238"/>
<path d="M567.598 121.705C566.154 121.327 565.497 124.244 566.841 124.593C568.186 124.941 568.813 122.014 567.598 121.705Z" fill="#263238"/>
<path d="M576.349 122.016C575.984 121.833 575.628 121.63 575.284 121.409C574.876 121.17 574.527 121.02 574.288 120.582C574.24 120.45 574.237 120.306 574.281 120.173C574.324 120.039 574.411 119.924 574.527 119.846C574.779 119.725 575.058 119.673 575.336 119.696C575.615 119.719 575.882 119.815 576.111 119.975C576.623 120.227 577.024 120.66 577.236 121.19C577.271 121.31 577.273 121.439 577.24 121.56C577.207 121.681 577.14 121.791 577.048 121.877C576.956 121.963 576.842 122.021 576.719 122.046C576.595 122.07 576.467 122.06 576.349 122.016Z" fill="#263238"/>
<path d="M566.781 120.364C567.191 120.359 567.6 120.329 568.006 120.275C568.442 120.304 568.876 120.188 569.24 119.946C569.34 119.848 569.404 119.719 569.422 119.58C569.44 119.441 569.411 119.3 569.34 119.18C569.166 118.961 568.937 118.793 568.676 118.693C568.415 118.594 568.132 118.566 567.856 118.612C567.284 118.612 566.732 118.829 566.313 119.219C566.223 119.314 566.161 119.433 566.137 119.561C566.112 119.69 566.126 119.823 566.175 119.944C566.225 120.065 566.308 120.169 566.416 120.244C566.523 120.319 566.65 120.36 566.781 120.364Z" fill="#263238"/>
<path d="M572.438 132.501C572.205 132.731 571.898 132.872 571.572 132.899C571.234 132.832 570.915 132.693 570.636 132.491C570.576 132.491 570.636 132.491 570.636 132.491C570.736 132.693 570.889 132.866 571.078 132.99C571.267 133.114 571.485 133.186 571.711 133.198C571.904 133.18 572.088 133.107 572.24 132.987C572.393 132.867 572.506 132.704 572.568 132.52C572.548 132.511 572.478 132.481 572.438 132.501Z" fill="#263238"/>
<path d="M571.95 129.603C571.653 129.92 571.293 130.172 570.894 130.343C570.495 130.515 570.065 130.602 569.63 130.599C569.25 130.603 568.871 130.553 568.505 130.45L568.296 130.39L568.097 130.32C568.052 130.3 568.014 130.266 567.989 130.223C567.964 130.18 567.953 130.131 567.957 130.081C567.953 130.052 567.953 130.021 567.957 129.992V129.912C568.067 129.215 568.336 128.16 568.336 128.16C568.047 128.239 566.633 128.588 566.723 128.219C567.384 125.071 568.365 121.998 569.65 119.049C569.662 119.035 569.678 119.024 569.696 119.019C569.714 119.014 569.734 119.015 569.751 119.022C569.769 119.028 569.784 119.04 569.795 119.056C569.805 119.072 569.81 119.09 569.809 119.109C569.212 122.016 568.117 124.804 567.47 127.722C567.973 127.591 568.493 127.534 569.013 127.552C569.112 127.552 568.475 129.544 568.445 129.902C569.01 130.065 569.601 130.113 570.185 130.043C570.768 129.973 571.331 129.786 571.841 129.494C571.95 129.464 572.05 129.534 571.95 129.603Z" fill="#263238"/>
<path d="M569.012 130.17C569.304 130.742 569.74 131.229 570.276 131.584C570.575 131.766 570.923 131.849 571.272 131.823C572.029 131.823 572.178 131.106 572.148 130.508C572.125 130.191 572.068 129.878 571.979 129.573C571.078 130.081 570.039 130.29 569.012 130.17Z" fill="#263238"/>
<path d="M570.277 131.584C570.576 131.766 570.924 131.85 571.273 131.823C572.03 131.823 572.179 131.106 572.149 130.509C571.762 130.452 571.366 130.527 571.027 130.722C570.687 130.917 570.423 131.221 570.277 131.584Z" fill="#FF9BBC"/>
<path d="M565.785 113.283C565.984 112.894 566.532 111.949 567.06 111.978C567.587 112.008 568.055 113.163 569.3 113.611C571.013 114.269 574.278 112.616 576.648 113.492C579.018 114.368 580.252 116.817 580.332 121.179C580.412 125.54 583.498 129.333 584.723 126.585C584.723 126.486 584.833 126.306 584.952 126.047C585.689 121.945 585.888 117.783 585.211 115.583C583.1 108.663 573.512 105.805 568.035 109.848C567.017 110.792 566.244 111.972 565.785 113.283Z" fill="#263238"/>
<path d="M582.313 126.605C582.313 126.605 585.46 122.294 587.421 123.429C589.383 124.564 586.953 130.857 584.603 131.673C584.31 131.8 583.994 131.866 583.675 131.868C583.355 131.869 583.039 131.805 582.744 131.68C582.45 131.556 582.184 131.372 581.963 131.142C581.742 130.911 581.57 130.638 581.457 130.339L582.313 126.605Z" fill="#D3766A"/>
<path d="M586.685 125.224C586.685 125.224 586.685 125.273 586.685 125.283C585.926 125.64 585.252 126.153 584.705 126.787C584.157 127.422 583.75 128.165 583.508 128.967C583.606 128.801 583.739 128.658 583.898 128.549C584.057 128.44 584.238 128.367 584.429 128.337C584.619 128.307 584.814 128.319 584.999 128.373C585.185 128.426 585.355 128.521 585.5 128.649C585.5 128.649 585.5 128.748 585.5 128.738C585.215 128.641 584.908 128.634 584.62 128.718C584.331 128.802 584.075 128.972 583.887 129.206C583.578 129.606 583.312 130.037 583.09 130.491C583.011 130.64 582.742 130.55 582.802 130.391C582.762 128.26 584.444 125.383 586.685 125.224Z" fill="#263238"/>
<path d="M563.824 115.106C563.824 115.106 567.807 102.092 579.466 105.587C591.126 109.082 587.292 122.145 587.292 122.145L563.824 115.106Z" fill="#F59B5F"/>
<path d="M588.419 121.511L563.203 113.946L562.648 115.796L587.864 123.361L588.419 121.511Z" fill="#F59B5F"/>
<path d="M575.642 117.645L570.395 116.072L575.463 103.655L580.71 105.229L575.642 117.645Z" fill="#F59B5F"/>
<path opacity="0.1" d="M575.642 117.645L570.395 116.072L575.463 103.655L580.71 105.229L575.642 117.645Z" fill="black"/>
<path d="M505.319 136.731C507.858 138.443 508.425 134.46 508.425 134.46C508.425 134.46 508.993 140.435 512.308 141.141C515.624 141.848 516.012 137.019 516.052 136.681C516.052 136.989 516.749 142.426 520.154 142.844C523.559 143.262 523.37 138.324 523.35 138.005C523.48 138.294 525.182 142.048 527.841 141.779C532.401 141.301 528.438 130.159 529.992 126.784L536.742 125.24C535.014 124.808 533.447 123.885 532.232 122.582C530.42 120.75 529.245 119.525 527.701 119.017C527.022 118.768 526.279 118.745 525.585 118.951C524.891 119.158 524.282 119.582 523.848 120.162C523.848 120.162 522.982 117.016 520.314 116.608C518.94 116.399 517.386 118.41 517.386 118.41C517.154 117.713 516.733 117.094 516.171 116.622C515.609 116.149 514.926 115.841 514.2 115.732C512.288 115.552 511.024 117.604 511.024 117.604C511.024 117.604 509.152 115.612 507.141 116.02C503.078 116.887 499.862 133.047 505.319 136.731Z" fill="#D3766A"/>
<path d="M531.484 126.187L536.601 125.252L537.139 125.013C543.113 122.105 545.025 113.801 540.315 114.558C536.731 115.135 534.262 120.781 530.508 120.841L531.484 126.187Z" fill="#D3766A"/>
<path d="M510.773 117.865H510.693C508.242 123.098 507.433 128.951 508.373 134.652C508.373 134.831 508.712 134.861 508.712 134.652C508.585 128.986 509.28 123.332 510.773 117.865Z" fill="#263238"/>
<path d="M517.376 118.322C517.376 118.262 517.287 118.232 517.257 118.322C514.604 124.137 514.11 130.706 515.863 136.852C515.932 137.071 516.211 137.19 516.151 136.941C515.196 132.66 515.893 123.44 517.376 118.322Z" fill="#263238"/>
<path d="M523.639 138.396C521.976 132.422 522.404 126.448 523.728 120.374C523.728 120.295 523.639 120.275 523.599 120.374C522.145 123.162 521.707 127.105 521.607 130.202C521.475 133.076 522.096 135.935 523.41 138.496C523.479 138.555 523.678 138.525 523.639 138.396Z" fill="#263238"/>
</svg>
